<svg xmlns="http://www.w3.org/2000/svg" xmlns:xlink="http://www.w3.org/1999/xlink" width="471" height="471" viewBox="0 0 471 471"><defs><filter id="a" x="0" y="0" width="471" height="471" filterUnits="userSpaceOnUse"><feOffset input="SourceAlpha"/><feGaussianBlur stdDeviation="10" result="b"/><feFlood flood-opacity="0.102"/><feComposite operator="in" in2="b"/><feComposite in="SourceGraphic"/></filter></defs><g transform="translate(-215 -12)"><g transform="matrix(1, 0, 0, 1, 215, 12)" filter="url(#a)"><circle cx="205.5" cy="205.5" r="205.5" transform="translate(30 30)" fill="#fff"/></g><g transform="translate(-1981.018 -2325.018)"><g transform="translate(2310 2451)"><path d="M335.856,186.381,243.907,243.9l-57.52,91.951A121.171,121.171,0,0,0,335.856,186.381Z" transform="translate(-98.233 -98.229)" fill="#ffbb4d"/><path d="M121.079,0A121.1,121.1,0,0,0,88.154,237.625L237.624,88.152A121.13,121.13,0,0,0,121.079,0Z" fill="#e86807"/><path d="M330.816,181.322,181.343,330.8A121.181,121.181,0,0,1,330.816,181.322Z" transform="translate(-93.186 -93.176)" fill="#fc962e"/></g></g></g></svg>