<svg xmlns="http://www.w3.org/2000/svg" xmlns:xlink="http://www.w3.org/1999/xlink" width="471" height="471" viewBox="0 0 471 471"><defs><filter id="a" x="0" y="0" width="471" height="471" filterUnits="userSpaceOnUse"><feOffset input="SourceAlpha"/><feGaussianBlur stdDeviation="10" result="b"/><feFlood flood-opacity="0.102"/><feComposite operator="in" in2="b"/><feComposite in="SourceGraphic"/></filter></defs><g transform="translate(-215 -12)"><g transform="matrix(1, 0, 0, 1, 215, 12)" filter="url(#a)"><circle cx="205.5" cy="205.5" r="205.5" transform="translate(30 30)" fill="#fff"/></g><g transform="translate(-1645 -2197)"><path d="M253.467,0H78.483a8.484,8.484,0,0,0-8.475,8.474V255.705a8.484,8.484,0,0,0,8.475,8.474H253.468a8.484,8.484,0,0,0,8.475-8.474V8.474A8.485,8.485,0,0,0,253.467,0Z" transform="translate(1929.992 2312)" fill="#ffbb4d"/><g transform="translate(2022.077 2312)"><path d="M414.432,0H402.565a8.484,8.484,0,0,1,8.475,8.474V255.705a8.484,8.484,0,0,1-8.475,8.474h11.867a8.484,8.484,0,0,0,8.475-8.474V8.474A8.484,8.484,0,0,0,414.432,0Z" transform="translate(-253.05)" fill="#e86807"/><path d="M254.87,60.527H168.7a3.87,3.87,0,1,1,0-7.74H254.87a3.87,3.87,0,1,1,0,7.74Z" transform="translate(-137.982 -25.55)" fill="#e86807"/><path d="M172.949,330.527H116.665a3.87,3.87,0,0,1,0-7.74h56.284a3.87,3.87,0,1,1,0,7.74Z" transform="translate(-112.795 -156.236)" fill="#e86807"/><path d="M172.949,371.527H116.665a3.87,3.87,0,1,1,0-7.74h56.284a3.87,3.87,0,1,1,0,7.74Z" transform="translate(-112.795 -176.081)" fill="#e86807"/><path d="M258.559,412.527H116.665a3.87,3.87,0,0,1,0-7.74H258.559a3.87,3.87,0,0,1,0,7.74Z" transform="translate(-112.795 -195.926)" fill="#e86807"/><path d="M258.559,453.527H116.665a3.87,3.87,0,0,1,0-7.74H258.559a3.87,3.87,0,0,1,0,7.74Z" transform="translate(-112.795 -215.771)" fill="#e86807"/></g><path d="M259.591,85.787H116.665a3.87,3.87,0,0,0-3.87,3.87V190.788a3.87,3.87,0,0,0,3.87,3.87H259.591a3.87,3.87,0,0,0,3.87-3.87V89.657A3.87,3.87,0,0,0,259.591,85.787Z" transform="translate(1909.282 2270.477)" fill="#fff"/><path d="M386.163,85.787H374.3a3.87,3.87,0,0,1,3.87,3.87V190.788a3.87,3.87,0,0,1-3.87,3.87h11.867a3.87,3.87,0,0,0,3.87-3.87V89.657A3.87,3.87,0,0,0,386.163,85.787Z" transform="translate(1782.71 2270.477)" fill="#ecedef"/><path d="M282.292,226.164a30.992,30.992,0,0,0-30.957,30.957c0,7.009,4.79,17.452,14.236,31.038,6.807,9.791,13.506,17.6,13.788,17.924a3.87,3.87,0,0,0,5.867,0c.282-.328,6.98-8.133,13.788-17.924,9.447-13.586,14.237-24.028,14.237-31.038A30.994,30.994,0,0,0,282.292,226.164Z" transform="translate(1842.226 2202.531)" fill="#962903"/><path d="M305.766,226.164a30.98,30.98,0,0,0-5.934.577,31.005,31.005,0,0,1,25.024,30.38c0,7.009-4.79,17.452-14.237,31.038-4.093,5.886-8.144,11.052-10.787,14.31,1.753,2.161,2.888,3.483,3,3.614a3.87,3.87,0,0,0,5.867,0c.282-.328,6.98-8.133,13.788-17.924,9.447-13.586,14.237-24.028,14.237-31.038A30.993,30.993,0,0,0,305.766,226.164Z" transform="translate(1818.752 2202.531)" fill="#621704"/><path d="M297.266,256.475a14.995,14.995,0,1,0,14.995,14.995A15.012,15.012,0,0,0,297.266,256.475Z" transform="translate(1827.252 2187.86)" fill="#fff"/><path d="M305.766,256.475a14.915,14.915,0,0,0-5.934,1.226,14.991,14.991,0,0,1,0,27.537,14.994,14.994,0,1,0,5.934-28.763Z" transform="translate(1818.752 2187.86)" fill="#ecedef"/></g></g></svg>