<svg xmlns="http://www.w3.org/2000/svg" xmlns:xlink="http://www.w3.org/1999/xlink" width="900" height="650" viewBox="0 0 900 650"><defs><linearGradient id="a" x1="0.5" y1="1" x2="0.5" gradientUnits="objectBoundingBox"><stop offset="0" stop-color="#111"/><stop offset="1" stop-color="#555"/></linearGradient><filter id="b" x="231" y="475" width="438" height="148" filterUnits="userSpaceOnUse"><feOffset input="SourceAlpha"/><feGaussianBlur stdDeviation="5" result="c"/><feFlood flood-opacity="0.161"/><feComposite operator="in" in2="c"/><feComposite in="SourceGraphic"/></filter><filter id="d" x="215" y="12" width="471" height="471" filterUnits="userSpaceOnUse"><feOffset input="SourceAlpha"/><feGaussianBlur stdDeviation="10" result="e"/><feFlood flood-opacity="0.102"/><feComposite operator="in" in2="e"/><feComposite in="SourceGraphic"/></filter><clipPath id="g"><rect width="900" height="650"/></clipPath></defs><g id="f" clip-path="url(#g)"><rect width="900" height="650" fill="#fff"/><rect width="900" height="650" fill="url(#a)"/><g transform="matrix(1, 0, 0, 1, 0, 0)" filter="url(#b)"><text transform="translate(450 543)" fill="#fff" font-size="50" font-family="NotoSans-Bold, Noto Sans" font-weight="700"><tspan x="-193.054" y="0">LOCAL VENDOR</tspan><tspan x="-203.04" y="50">MAP &amp; STICKERS</tspan></text></g><g transform="matrix(1, 0, 0, 1, 0, 0)" filter="url(#d)"><circle cx="205.5" cy="205.5" r="205.5" transform="translate(245 42)" fill="#fff"/></g><path d="M381.174,22.26a3.432,3.432,0,0,1-3.432-3.432V7.653a3.432,3.432,0,1,1,6.865,0V18.827A3.432,3.432,0,0,1,381.174,22.26Zm0,0" transform="translate(120.055 129.901)" fill="#8d18ff"/><path d="M80.706,193.052,50.5,252.068a7.938,7.938,0,0,1-14.132,0L6.16,193.052C-10.933,164.511,9.5,127.4,43.433,127.4,77.311,127.4,97.842,164.442,80.706,193.052Zm0,0" transform="translate(328.37 61.968)" fill="#d168ff"/><path d="M374.53,83.888V98.511H279.824V83.888a47.084,47.084,0,0,1,47.1-47.1h.508A47.1,47.1,0,0,1,374.53,83.888Zm0,0" transform="translate(174.054 111.937)" fill="#b850ff"/><path d="M391.785,83.888v3.446H325.736a14.619,14.619,0,0,1-14.623-14.619A46.919,46.919,0,0,1,322.4,42.124a46.845,46.845,0,0,1,21.776-5.331h.508A47.1,47.1,0,0,1,391.785,83.888Zm0,0" transform="translate(156.799 111.937)" fill="#d168ff"/><path d="M89.69,196.561a27.73,27.73,0,0,1-12.527,17.3,28.122,28.122,0,0,1-4.974,2.411,27.887,27.887,0,0,1-33.42-11.565,27.91,27.91,0,1,1,50.922-8.147Zm0,0" transform="translate(309.267 42.793)" fill="#b850ff"/><path d="M113.484,198.683a27.73,27.73,0,0,1-12.527,17.3,28.118,28.118,0,0,1-4.974,2.411,27.931,27.931,0,0,1-4.911-49.96,27.435,27.435,0,0,1,4.974-2.416,27.951,27.951,0,0,1,17.438,32.663Zm0,0" transform="translate(285.473 40.672)" fill="#fff"/><path d="M154.117,350.226H94.067a12.519,12.519,0,0,1-12.5-12.5v-13.6a6.865,6.865,0,1,1,13.729,0V336.5h57.6V310.709A12.52,12.52,0,0,1,165.4,298.2h90.639V263.039H223.479a12.52,12.52,0,0,1-12.506-12.5V225.517a6.865,6.865,0,0,1,13.731,0v23.791h32.558a12.52,12.52,0,0,1,12.5,12.506v37.615a12.52,12.52,0,0,1-12.5,12.506H166.621v25.787A12.519,12.519,0,0,1,154.117,350.226Zm0,0" transform="translate(283.391 11.646)" fill="#6a0dc4"/><path d="M378.5,6.865H355.215a3.432,3.432,0,1,1,0-6.865H378.5a3.432,3.432,0,1,1,0,6.865Zm0,0" transform="translate(134.372 132.227)" fill="#8d18ff"/><path d="M276.042,164.184h91.627a5.864,5.864,0,0,1,5.864,5.864v.189a5.864,5.864,0,0,1-5.864,5.862H276.042a5.862,5.862,0,0,1-5.862-5.862v-.189A5.863,5.863,0,0,1,276.042,164.184Zm0,0" transform="translate(179.373 41.684)" fill="#8d18ff"/></g></svg>