<svg xmlns="http://www.w3.org/2000/svg" xmlns:xlink="http://www.w3.org/1999/xlink" width="900" height="650" viewBox="0 0 900 650"><defs><linearGradient id="a" x1="0.5" y1="1" x2="0.5" gradientUnits="objectBoundingBox"><stop offset="0" stop-color="#111"/><stop offset="1" stop-color="#555"/></linearGradient><filter id="b" x="195" y="475" width="510" height="148" filterUnits="userSpaceOnUse"><feOffset input="SourceAlpha"/><feGaussianBlur stdDeviation="5" result="c"/><feFlood flood-opacity="0.161"/><feComposite operator="in" in2="c"/><feComposite in="SourceGraphic"/></filter><filter id="d" x="215" y="12" width="471" height="471" filterUnits="userSpaceOnUse"><feOffset input="SourceAlpha"/><feGaussianBlur stdDeviation="10" result="e"/><feFlood flood-opacity="0.102"/><feComposite operator="in" in2="e"/><feComposite in="SourceGraphic"/></filter><clipPath id="g"><rect width="900" height="650"/></clipPath></defs><g id="f" clip-path="url(#g)"><rect width="900" height="650" fill="#fff"/><rect width="900" height="650" fill="url(#a)"/><g transform="matrix(1, 0, 0, 1, 0, 0)" filter="url(#b)"><text transform="translate(450 543)" fill="#fff" font-size="50" font-family="NotoSans-Bold, Noto Sans" font-weight="700"><tspan x="-239.27" y="0">WHERE OUR WASTE</tspan><tspan x="-180.383" y="50">GOES POSTERS</tspan></text></g><g transform="matrix(1, 0, 0, 1, 0, 0)" filter="url(#d)"><circle cx="205.5" cy="205.5" r="205.5" transform="translate(245 42)" fill="#fff"/></g><path d="M229.59,474.045H151.03a3.851,3.851,0,0,1,0-7.7H229.59a3.851,3.851,0,1,1,0,7.7Zm0,0" transform="translate(262.294 -113.512)" fill="#b850ff"/><path d="M116.856,455.044a18.9,18.9,0,1,1-18.9-18.9A18.9,18.9,0,0,1,116.856,455.044Zm0,0" transform="translate(296.469 -98.362)" fill="#6a0dc4"/><path d="M116.937,467.669a6.361,6.361,0,1,1-6.362-6.36A6.362,6.362,0,0,1,116.937,467.669Zm0,0" transform="translate(283.846 -110.987)" fill="#b850ff"/><path d="M350.342,455.044a18.9,18.9,0,1,1-18.9-18.9A18.9,18.9,0,0,1,350.342,455.044Zm0,0" transform="translate(179.349 -98.362)" fill="#6a0dc4"/><path d="M350.422,467.669a6.361,6.361,0,1,1-6.36-6.36A6.361,6.361,0,0,1,350.422,467.669Zm0,0" transform="translate(166.726 -110.987)" fill="#b850ff"/><path d="M205.611,315.13H41.081a4.189,4.189,0,0,1-4.147-3.584L19.9,195.266a4.19,4.19,0,0,1,4.147-4.8H222.642a4.19,4.19,0,0,1,4.147,4.8L209.758,311.546A4.189,4.189,0,0,1,205.611,315.13Zm0,0" transform="translate(326.16 24.872)" fill="#b850ff"/><path d="M402.71,195.266,385.679,311.546a4.2,4.2,0,0,1-4.147,3.586h-10.97a4.188,4.188,0,0,0,4.147-3.586L391.74,195.266a4.185,4.185,0,0,0-4.147-4.793h10.97A4.19,4.19,0,0,1,402.71,195.266Zm0,0" transform="translate(150.241 24.87)" fill="#a240fc"/><path d="M108.344,190.469H227.12v54.943a12.743,12.743,0,0,1-25.486,0V230.1a10.58,10.58,0,0,0-21.16,0v11.06a12.745,12.745,0,0,1-25.489,0V230.625a10.578,10.578,0,0,0-21.156,0v43.092a12.743,12.743,0,1,1-25.486,0Zm0,0" transform="translate(281.775 24.872)" fill="#6a0dc4"/><path d="M330.524,383.218H304.431a5.134,5.134,0,0,1-5.134-5.136V357.493a5.133,5.133,0,0,1,5.134-5.134h26.093a5.133,5.133,0,0,1,5.134,5.134v20.589A5.134,5.134,0,0,1,330.524,383.218Zm0,0" transform="translate(185.989 -56.336)" fill="#a240fc"/><path d="M317.759,373.674a3.851,3.851,0,0,1-.037-7.7h.037a3.851,3.851,0,0,1,0,7.7Zm0,0" transform="translate(178.669 -63.165)" fill="#8d18ff"/><path d="M330.246,393.7H317.779a3.851,3.851,0,0,1,0-7.7h12.467a3.851,3.851,0,1,1,0,7.7Zm0,0" transform="translate(178.649 -73.208)" fill="#8d18ff"/><path d="M226.744,99.9a13.63,13.63,0,0,1-23.833,8.14,22.357,22.357,0,0,1-28.635-3.179,39.785,39.785,0,0,1-39.51,3.121,54.989,54.989,0,0,1-12.907,2.217c-.944.051-1.892.072-2.852.072a54.89,54.89,0,0,1-31.332-9.763,33.9,33.9,0,0,1-42.95,3.841,19.059,19.059,0,0,1-24.4,2.71A11.613,11.613,0,1,1,11.613,87.77c.187,0,.37,0,.557.014A19.067,19.067,0,0,1,30.22,72.16,33.94,33.94,0,0,1,53.006,44.241,19.063,19.063,0,1,1,79.42,16.764a55.131,55.131,0,0,1,94.5,33.432,18.845,18.845,0,0,1,17.33,16.476c.018.136.035.273.051.411A22.317,22.317,0,0,1,212.49,85.416c.214-.01.432-.019.646-.019A13.638,13.638,0,0,1,226.744,99.9Zm0,0" transform="translate(336.122 120.414)" fill="#a240fc"/><path d="M349.394,168.246a13.63,13.63,0,0,1-23.833,8.14,22.357,22.357,0,0,1-28.635-3.179,39.785,39.785,0,0,1-39.51,3.121,54.99,54.99,0,0,1-12.907,2.217c49.11-7.256,68.268-25.192,74.71-42.3a22.417,22.417,0,0,1,15.921,17.513c.214-.01.432-.019.646-.019A13.638,13.638,0,0,1,349.394,168.246Zm0,0" transform="translate(213.472 52.071)" fill="#8d18ff"/><path d="M91.97,84.4,85.729,72.067a13.218,13.218,0,0,1-1.08-9A15.372,15.372,0,0,0,83.531,52.6L76.192,38.082a.252.252,0,0,1,.111-.339l11.28-5.7,7.452,14.739a15.372,15.372,0,0,0,7.774,7.106,13.207,13.207,0,0,1,6.607,6.2l12.3,24.316Zm0,0" transform="translate(297.917 104.343)" fill="#d168ff"/><path d="M69.668,35.608l13.976-7.067a5.441,5.441,0,1,0-4.912-9.711L64.759,25.9a5.441,5.441,0,1,0,4.91,9.711Zm0,0" transform="translate(305.136 111.263)" fill="#b850ff"/><path d="M156.315,122.508a36.523,36.523,0,0,0-67.7,0Zm0,0" transform="translate(291.67 70.401)" fill="#a240fc"/><path d="M152.442,122.485a3.851,3.851,0,0,1-3.568-2.4,32.674,32.674,0,0,0-60.563,0,3.85,3.85,0,1,1-7.135-2.895,40.375,40.375,0,0,1,74.833,0,3.85,3.85,0,0,1-3.567,5.3Zm0,0" transform="translate(295.546 74.275)" fill="#6a0dc4"/><path d="M298.234,99.637v32.214a2.906,2.906,0,0,0,4.96,2.054l32.214-32.214a2.906,2.906,0,0,0-2.056-4.96H301.139A2.905,2.905,0,0,0,298.234,99.637Zm0,0" transform="translate(186.522 71.893)" fill="#b850ff"/><path d="M303.175,130.449l34.976-34.976a2.906,2.906,0,0,0-1.962-4.959l-21.3-.676a2.908,2.908,0,0,0-2.805,1.863l-13.676,35.652A2.906,2.906,0,0,0,303.175,130.449Zm0,0" transform="translate(186.54 75.35)" fill="#d168ff"/><path d="M307.532,166.161a23.857,23.857,0,0,0-44.22,0Zm0,0" transform="translate(204.04 44.537)" fill="#a240fc"/><path d="M303.656,166.136a3.851,3.851,0,0,1-3.568-2.4,20.007,20.007,0,0,0-37.083,0,3.851,3.851,0,1,1-7.137-2.895,27.709,27.709,0,0,1,51.357,0,3.852,3.852,0,0,1-3.568,5.3Zm0,0" transform="translate(207.916 48.412)" fill="#6a0dc4"/><path d="M382.911,54.614a3.85,3.85,0,1,1-.043-7.7h.041a3.85,3.85,0,0,1,0,7.7Zm0,0" transform="translate(145.989 96.881)" fill="#8d18ff"/><path d="M43.251,88.006a3.851,3.851,0,1,1-.041-7.7h.041a3.851,3.851,0,0,1,0,7.7Zm0,0" transform="translate(316.369 80.132)" fill="#8d18ff"/><path d="M347.6,11.454a3.85,3.85,0,1,1-.043-7.7h.041a3.85,3.85,0,0,1,0,7.7Zm0,0" transform="translate(163.7 118.531)" fill="#8d18ff"/><path d="M414.423,83.289a3.85,3.85,0,0,1-.064-7.7h.064a3.85,3.85,0,0,1,.023,7.7Zm0,0" transform="translate(130.182 82.497)" fill="#8d18ff"/></g></svg>