<svg xmlns="http://www.w3.org/2000/svg" xmlns:xlink="http://www.w3.org/1999/xlink" width="471" height="471" viewBox="0 0 471 471"><defs><filter id="a" x="0" y="0" width="471" height="471" filterUnits="userSpaceOnUse"><feOffset input="SourceAlpha"/><feGaussianBlur stdDeviation="10" result="b"/><feFlood flood-opacity="0.102"/><feComposite operator="in" in2="b"/><feComposite in="SourceGraphic"/></filter></defs><g transform="translate(-215 -12)"><g transform="matrix(1, 0, 0, 1, 215, 12)" filter="url(#a)"><circle cx="205.5" cy="205.5" r="205.5" transform="translate(30 30)" fill="#fff"/></g><path d="M237.923,203.029c0,29.782-19.367,70.941-42.783,93.425-10.385,9.985-21.57,16.285-32.219,16.285a67.772,67.772,0,0,1-19.218-2.825,41.79,41.79,0,0,0-24.24,0,67.764,67.764,0,0,1-19.217,2.825c-11.155,0-22.908-6.922-33.712-17.749-22.741-22.771-41.29-62.819-41.29-91.962,0-43,25.721-68.976,49.907-75.246,11.586-3,25.029-1.069,35.885,1.756a81.357,81.357,0,0,0,34.267,1.469q3.44-.591,6.826-1.469c10.857-2.825,24.294-4.76,35.885-1.756C212.2,134.053,237.923,160.031,237.923,203.029Z" transform="translate(313.756 58.772)" fill="#d168ff"/><path d="M195.139,296.452c-28.736,5.078-50.87,3.671-67.548-.367A67.372,67.372,0,0,1,76.723,238.7c-8.456-69.666,37.062-89.948,37.062-89.948,13.341,6.062,28.343,2.825,28.343,2.825-9.573-9.567,3.177-20.573,3.177-20.573a81.357,81.357,0,0,1-34.267-1.469c-10.857-2.825-24.3-4.76-35.885-1.756-24.187,6.271-49.908,32.249-49.908,75.247s40.364,109.71,75,109.71a67.773,67.773,0,0,0,19.218-2.825,41.79,41.79,0,0,1,24.24,0,67.77,67.77,0,0,0,19.218,2.825c10.648,0,21.833-6.3,32.219-16.285Z" transform="translate(313.756 58.772)" fill="#b850ff"/><path d="M372.737,2.662s-5.972,41.63-37.426,53.748C305.242,68,278.44,36.673,267.446,39.139a4.4,4.4,0,0,0-1.385.538.059.059,0,0,0-.024.012l.006-.024c.37-1.123,12.428-37.038,43.392-39.391C340.888-2.116,358,12.217,372.737,2.662Z" transform="translate(189.367 123.999)" fill="#6a0dc4"/><path d="M372.737,2.662s-19.11,23.291-45.984,23.291c-23.631,0-52.649,10.618-59.308,13.186-.8.3-1.272.5-1.385.538a.059.059,0,0,0-.024.012l.006-.024c.37-1.123,12.428-37.038,43.392-39.391C340.888-2.116,358,12.217,372.737,2.662Z" transform="translate(189.368 123.999)" fill="#a240fc"/><ellipse cx="21.495" cy="13.909" rx="21.495" ry="13.909" transform="translate(505.491 266.391) rotate(-95.676)" fill="#fff"/><path d="M243.7,166.437c0,4.891-7.68,8.964-17.874,9.889-1.421.132-2.89.2-4.4.2-1.571,0-3.1-.072-4.575-.209-10.1-.962-17.689-5.016-17.689-9.878Z" transform="translate(223.91 38.022)" fill="#a240fc"/><path d="M243.083,73.6,226.75,98.4a136.3,136.3,0,0,1,2.968,16.489c.376,3.195.645,6.5.771,9.889-1.421.131-2.89.2-4.4.2-1.571,0-3.1-.072-4.575-.209-.131-3.392-.424-6.689-.824-9.878a130.516,130.516,0,0,0-11.98-40.46,4.48,4.48,0,0,1,7.913-4.2A118.227,118.227,0,0,1,223.5,87.052L235.607,68.67a4.477,4.477,0,0,1,7.477,4.927Z" transform="translate(219.249 89.566)" fill="#6a0dc4"/></g></svg>