<svg xmlns="http://www.w3.org/2000/svg" xmlns:xlink="http://www.w3.org/1999/xlink" width="900" height="650" viewBox="0 0 900 650"><defs><linearGradient id="a" x1="0.769" y1="1" x2="0.764" gradientUnits="objectBoundingBox"><stop offset="0" stop-color="#962903"/><stop offset="1" stop-color="#e86807"/></linearGradient><filter id="b" x="191" y="475" width="518" height="148" filterUnits="userSpaceOnUse"><feOffset input="SourceAlpha"/><feGaussianBlur stdDeviation="5" result="c"/><feFlood flood-opacity="0.161"/><feComposite operator="in" in2="c"/><feComposite in="SourceGraphic"/></filter><filter id="d" x="215" y="12" width="471" height="471" filterUnits="userSpaceOnUse"><feOffset input="SourceAlpha"/><feGaussianBlur stdDeviation="10" result="e"/><feFlood flood-opacity="0.102"/><feComposite operator="in" in2="e"/><feComposite in="SourceGraphic"/></filter><clipPath id="g"><rect width="900" height="650"/></clipPath></defs><g id="f" clip-path="url(#g)"><rect width="900" height="650" fill="#fff"/><rect width="900" height="650" fill="url(#a)"/><g transform="matrix(1, 0, 0, 1, 0, 0)" filter="url(#b)"><text transform="translate(450 543)" fill="#fff" font-size="50" font-family="NotoSans-Bold, Noto Sans" font-weight="700"><tspan x="-243.237" y="0">SHARPE REFECTORY</tspan><tspan x="-153.992" y="50">EATERY MAP</tspan></text></g><g transform="matrix(1, 0, 0, 1, 0, 0)" filter="url(#d)"><circle cx="205.5" cy="205.5" r="205.5" transform="translate(245 42)" fill="#fff"/></g><g transform="translate(-5518 -2960)"><g transform="translate(5855.773 3180.651)"><path d="M70.235,293.431v67.484a3.464,3.464,0,0,1-6.928,0V334.5H19.428v26.417a3.464,3.464,0,0,1-6.928,0V293.431a3.464,3.464,0,0,1,6.928,0v34.184H63.306V293.431a3.464,3.464,0,0,1,6.928,0ZM233.97,289.99a3.453,3.453,0,0,0-3.464,3.441v34.184H186.627V293.431a3.464,3.464,0,0,0-6.928,0v67.484a3.464,3.464,0,0,0,6.928,0V334.5h43.878v26.417a3.464,3.464,0,0,0,6.928,0V293.431A3.453,3.453,0,0,0,233.97,289.99Z" transform="translate(-12.5 -243.876)" fill="#621704"/><path d="M254.475,192.443V305.812a2.3,2.3,0,0,1-2.309,2.294H238.309A2.3,2.3,0,0,1,236,305.812V192.443a2.3,2.3,0,0,1,2.309-2.294h13.856A2.3,2.3,0,0,1,254.475,192.443Z" transform="translate(-132.771 -190.149)" fill="#621704"/></g><path d="M172.581,172.574V186.34a2.3,2.3,0,0,1-2.309,2.294h-93.3a2.3,2.3,0,0,1-2.309-2.294V172.574a2.3,2.3,0,0,1,2.309-2.294h93.3A2.3,2.3,0,0,1,172.581,172.574ZM146.254,282.731H100.99A12.43,12.43,0,0,0,88.519,295.12a2.3,2.3,0,0,0,2.309,2.294h65.586a2.3,2.3,0,0,0,2.309-2.294A12.43,12.43,0,0,0,146.254,282.731ZM67.735,220.753H12.309A2.3,2.3,0,0,0,10,223.048V241.4a2.3,2.3,0,0,0,2.309,2.294H67.735a2.3,2.3,0,0,0,2.309-2.294V223.048A2.3,2.3,0,0,0,67.735,220.753Zm167.2,0H179.509a2.3,2.3,0,0,0-2.309,2.294V241.4a2.3,2.3,0,0,0,2.309,2.294h55.425a2.3,2.3,0,0,0,2.309-2.294V223.048A2.3,2.3,0,0,0,234.934,220.753Z" transform="translate(5844.619 3001.194)" fill="#962903"/><path d="M342.089,172.574V186.34a2.3,2.3,0,0,1-2.309,2.294H325a2.3,2.3,0,0,0,2.309-2.294V172.574A2.3,2.3,0,0,0,325,170.28h14.78A2.3,2.3,0,0,1,342.089,172.574Z" transform="translate(5675.11 3001.194)" fill="#621704"/><path d="M241.034,154.856H92.309A2.31,2.31,0,0,1,90,152.547V138.811a2.31,2.31,0,0,1,2.309-2.309H241.034a2.31,2.31,0,0,1,2.309,2.309v13.735A2.309,2.309,0,0,1,241.034,154.856Z" transform="translate(5801.569 3019.371)" fill="#ffbb4d"/><path d="M403.166,138.8v13.766a2.3,2.3,0,0,1-2.309,2.294H387a2.3,2.3,0,0,0,2.309-2.294V138.8A2.3,2.3,0,0,0,387,136.5h13.856A2.3,2.3,0,0,1,403.166,138.8Z" transform="translate(5641.746 3019.37)" fill="#fc962e"/><path d="M71.591,160.571v4.589a6.906,6.906,0,0,1-6.928,6.883H6.928A6.906,6.906,0,0,1,0,165.16V63.294A2.3,2.3,0,0,1,2.309,61,16.113,16.113,0,0,1,18.475,77.06v76.629H64.663A6.905,6.905,0,0,1,71.591,160.571ZM234.171,61a16.113,16.113,0,0,0-16.166,16.06v76.629H171.818a6.906,6.906,0,0,0-6.928,6.883v4.589a6.906,6.906,0,0,0,6.928,6.883h57.735a6.906,6.906,0,0,0,6.928-6.883V63.294A2.3,2.3,0,0,0,234.171,61Z" transform="translate(5850 3060)" fill="#fc962e"/><path d="M18.475,77.06v76.629H16.4a9.207,9.207,0,0,1-9.238-9.177V77.06A16.017,16.017,0,0,0,0,63.722v-.428A2.314,2.314,0,0,1,2.345,61,16.113,16.113,0,0,1,18.475,77.06ZM234.171,61a16.167,16.167,0,0,0-9.007,2.722V165.159a6.906,6.906,0,0,1-6.928,6.883h11.316a6.906,6.906,0,0,0,6.928-6.883V63.294A2.3,2.3,0,0,0,234.171,61ZM64.663,153.688H53.347a6.906,6.906,0,0,1,6.928,6.883v4.589a6.906,6.906,0,0,1-6.928,6.883H64.663a6.906,6.906,0,0,0,6.928-6.883v-4.589A6.906,6.906,0,0,0,64.663,153.688Z" transform="translate(5850 3060)" fill="#e86807"/></g></g></svg>