<svg xmlns="http://www.w3.org/2000/svg" xmlns:xlink="http://www.w3.org/1999/xlink" width="900" height="650" viewBox="0 0 900 650"><defs><linearGradient id="a" x1="0.5" y1="1" x2="0.5" gradientUnits="objectBoundingBox"><stop offset="0" stop-color="#ffbb4d"/><stop offset="1" stop-color="#fc962e"/></linearGradient><filter id="b" x="281" y="505" width="338" height="98" filterUnits="userSpaceOnUse"><feOffset input="SourceAlpha"/><feGaussianBlur stdDeviation="5" result="c"/><feFlood flood-opacity="0.161"/><feComposite operator="in" in2="c"/><feComposite in="SourceGraphic"/></filter><filter id="d" x="215" y="12" width="471" height="471" filterUnits="userSpaceOnUse"><feOffset input="SourceAlpha"/><feGaussianBlur stdDeviation="10" result="e"/><feFlood flood-opacity="0.102"/><feComposite operator="in" in2="e"/><feComposite in="SourceGraphic"/></filter><clipPath id="g"><rect width="900" height="650"/></clipPath></defs><g id="f" clip-path="url(#g)"><rect width="900" height="650" fill="#fff"/><rect width="900" height="650" fill="url(#a)"/><g transform="matrix(1, 0, 0, 1, 0, 0)" filter="url(#b)"><text transform="translate(450 573)" fill="#fff" font-size="50" font-family="NotoSans-Bold, Noto Sans" font-weight="700"><tspan x="-153.223" y="0">FANIMALIES</tspan></text></g><g transform="matrix(1, 0, 0, 1, 0, 0)" filter="url(#d)"><circle cx="205.5" cy="205.5" r="205.5" transform="translate(245 42)" fill="#fff"/></g><g transform="translate(-4464 -2526)"><path d="M266.112.064c-40.075,1.268-57.55,23.8-69.768,45.357,2.351,9.47.98,20.555-5.7,31.541,36.053,24.808,46.241,58.292,47.8,84.451.812,13.647-5.92,25.979-16.712,33.507,37.294,7.289,61.5-7.439,68.1-31.169,7.3-26.222-6.894-40.41-17.032-52.774s.406-28.378.406-28.378c15.41,26.273,59.488,23.339,64.879-10.282,6.176-38.5-16.609-74.006-71.975-72.252Zm0,0" transform="translate(4700.409 2673.999)" fill="#e86807"/><path d="M428.68,122.126c-5.391,33.619-49.471,36.555-64.879,10.28,0,0-7.334,11.143-3.884,22.015a33.93,33.93,0,0,1,3.884-9.079c15.408,26.273,59.488,23.339,64.879-10.28a73.958,73.958,0,0,0,.687-18.464Q429.124,119.347,428.68,122.126Zm0,0" transform="translate(4609.815 2611.255)" fill="#962903"/><path d="M326.05,318.115c-5.934,21.32-26.076,35.369-57.151,32.717a40.121,40.121,0,0,1-10.95,11.386c37.294,7.289,61.5-7.439,68.1-31.167a47.461,47.461,0,0,0,1.528-20.16A56.518,56.518,0,0,1,326.05,318.115Zm0,0" transform="translate(4664.19 2506.701)" fill="#962903"/><path d="M137.768,184.008c-1.557-26.159-11.745-59.643-47.8-84.451C106.8,71.879,89.965,43.552,64.654,42.09,39.115,40.614.6,55.47,3.742,83.141c1.407,12.388,16.6,20.526,33.908,24.218-7.271,22.363-21.414,82.913,23.918,117.8H96.407C120.228,225.154,139.1,206.34,137.768,184.008Zm0,0" transform="translate(4801.083 2651.404)" fill="#fc962e"/><path d="M92.029,301.315h10.2c6.176-59.466-34.119-117.8-34.119-117.8C60.84,205.882,46.7,266.433,92.029,301.315Zm0,0" transform="translate(4770.623 2575.242)" fill="#ffbb4d"/><path d="M91.579,342.259H35.754a8.43,8.43,0,0,1-8.074-10.935A19.26,19.26,0,0,1,37.842,319.5c13.7-6.71,29.1-5.077,29.1-5.077S44.27,271.448,94.352,259.605" transform="translate(4788.319 2534.299)" fill="#fc962e"/><path d="M150.142,338.8c-2.968,18.646-20.061,33.143-40.97,33.143H35.754a8.423,8.423,0,0,1-6.026-2.519,20.887,20.887,0,0,0-2.048,4.518,8.43,8.43,0,0,0,8.074,10.935h73.418c23.821,0,42.691-18.814,41.361-41.146Q150.39,341.3,150.142,338.8Zm0,0" transform="translate(4788.319 2491.684)" fill="#e86807"/><path d="M56.945,182.539s-13.607,17.511-45.475,28.715c-22.59,7.942-14.383,35.528,47.8,3.634" transform="translate(4803 2575.77)" fill="#fc962e"/><path d="M4.1,243.761c-12.02,10.208,1.362,27.157,55.178-.447A8.556,8.556,0,0,0,47.3,236.092C24.222,246.24,10.391,246.843,4.1,243.761Zm0,0" transform="translate(4802.994 2547.344)" fill="#e86807"/><path d="M75.664,95.18c-4.088,0-7.293,3.978-7.293,9.057s3.2,9.059,7.293,9.059,7.293-3.98,7.293-9.059S79.754,95.18,75.664,95.18Zm0,0" transform="translate(4766.208 2622.781)" fill="#621704"/><path d="M84.935,16.715C81.852,10.9,77.258,6.624,73.794,6.931c-6.237.55-15.263,16.063-19.505,24.028a81.778,81.778,0,0,1,26.175-7.388C81.763,21.4,83.29,19,84.935,16.715Zm0,0" transform="translate(4773.786 2670.278)" fill="#e86807"/><path d="M101.895,31.154S113.512,7.671,121.917,6.927,145.4,32.39,129.333,42.279" transform="translate(4748.168 2670.28)" fill="#fc962e"/><path d="M362.953,121.5a14.767,14.767,0,0,1,5.128-5.542,3.593,3.593,0,0,0-3.442-6.307c-.182.1-18.193,10.183-6.726,33.248l1.126,2.54a29.979,29.979,0,0,1,2.127-4.07l.484-.774a6.933,6.933,0,0,0,.713-5.768C360.763,129.757,360.954,125.288,362.953,121.5Zm0,0" transform="translate(4612.452 2615.225)" fill="#621704"/></g></g></svg>