<svg xmlns="http://www.w3.org/2000/svg" xmlns:xlink="http://www.w3.org/1999/xlink" width="900" height="650" viewBox="0 0 900 650"><defs><linearGradient id="a" x1="0.5" y1="1" x2="0.5" gradientUnits="objectBoundingBox"><stop offset="0" stop-color="#111"/><stop offset="1" stop-color="#555"/></linearGradient><filter id="b" x="171" y="505" width="558" height="98" filterUnits="userSpaceOnUse"><feOffset input="SourceAlpha"/><feGaussianBlur stdDeviation="5" result="c"/><feFlood flood-opacity="0.161"/><feComposite operator="in" in2="c"/><feComposite in="SourceGraphic"/></filter><filter id="d" x="215" y="12" width="471" height="471" filterUnits="userSpaceOnUse"><feOffset input="SourceAlpha"/><feGaussianBlur stdDeviation="10" result="e"/><feFlood flood-opacity="0.102"/><feComposite operator="in" in2="e"/><feComposite in="SourceGraphic"/></filter><clipPath id="g"><rect width="900" height="650"/></clipPath></defs><g id="f" clip-path="url(#g)"><rect width="900" height="650" fill="#fff"/><rect width="900" height="650" fill="url(#a)"/><g transform="matrix(1, 0, 0, 1, 0, 0)" filter="url(#b)"><text transform="translate(450 573)" fill="#fff" font-size="50" font-family="NotoSans-Bold, Noto Sans" font-weight="700"><tspan x="-263.062" y="0">VERTICAL PORTRAITS</tspan></text></g><g transform="matrix(1, 0, 0, 1, 0, 0)" filter="url(#d)"><circle cx="205.5" cy="205.5" r="205.5" transform="translate(245 42)" fill="#fff"/></g><g transform="translate(-4588 -2714)"><path d="M256,0V249.575A124.788,124.788,0,0,0,256,0Z" transform="translate(4782.788 2837)" fill="#e86807"/><path d="M229.489,124.788C229.489,55.869,182.612,0,124.788,0a124.788,124.788,0,0,0,0,249.575C182.612,249.575,229.489,193.706,229.489,124.788Z" transform="translate(4914 2837)" fill="#fc962e"/><path d="M287.134,146.448h22.6L256,92.716V251.9l53.731-53.732h-22.6Z" transform="translate(4782.788 2789.479)" fill="#ffbb4d"/><path d="M199.5,92.716l-53.731,53.732h22.6V198.17h-22.6L199.5,251.9l16.069-38.667V131.383Z" transform="translate(4839.285 2789.479)" fill="#fff"/></g></g></svg>