<svg xmlns="http://www.w3.org/2000/svg" xmlns:xlink="http://www.w3.org/1999/xlink" width="471" height="471" viewBox="0 0 471 471"><defs><filter id="a" x="0" y="0" width="471" height="471" filterUnits="userSpaceOnUse"><feOffset input="SourceAlpha"/><feGaussianBlur stdDeviation="10" result="b"/><feFlood flood-opacity="0.102"/><feComposite operator="in" in2="b"/><feComposite in="SourceGraphic"/></filter></defs><g transform="translate(-215 -12)"><g transform="matrix(1, 0, 0, 1, 215, 12)" filter="url(#a)"><circle cx="205.5" cy="205.5" r="205.5" transform="translate(30 30)" fill="#fff"/></g><g transform="translate(-1677 -3258)"><g transform="translate(2042.537 3428)"><path d="M145.309,97.1h24.4a4.068,4.068,0,0,1,4.067,4.067V109.3H141.242V101.17A4.067,4.067,0,0,1,145.309,97.1Z" transform="translate(-108.705 -93.036)" fill="#fc962e"/><path d="M74.688,88.276H90.956a4.068,4.068,0,0,1,4.067,4.067v12.2h-24.4v-12.2A4.067,4.067,0,0,1,74.688,88.276Z" transform="translate(-70.621 -88.276)" fill="#fc962e"/></g><path d="M231.823,88.276H109.811a4.068,4.068,0,0,0-4.067,4.067v4.067a4.068,4.068,0,0,1-4.067,4.067H4.067A4.068,4.068,0,0,0,0,104.545V238.758a4.068,4.068,0,0,0,4.067,4.067H231.824a4.068,4.068,0,0,0,4.067-4.067V92.343A4.068,4.068,0,0,0,231.823,88.276Z" transform="translate(2010 3339.724)" fill="#ffbb4d"/><rect width="235.89" height="97.61" transform="translate(2010 3476.805)" fill="#e86807"/><circle cx="48.805" cy="48.805" r="48.805" transform="translate(2079.14 3468.671)" fill="#fc962e"/><circle cx="40.671" cy="40.671" r="40.671" transform="translate(2087.274 3476.805)" fill="#621704"/><circle cx="28.469" cy="28.469" r="28.469" transform="translate(2099.476 3489.006)" fill="#962903"/><path d="M246.479,264.828a8.134,8.134,0,1,0,8.134,8.134A8.142,8.142,0,0,0,246.479,264.828Z" transform="translate(1881.466 3244.514)" fill="#621704"/><path d="M283.823,220.69a10.168,10.168,0,1,0,10.168,10.168A10.178,10.178,0,0,0,283.823,220.69Z" transform="translate(1862.424 3268.316)" fill="#d7deed"/><g transform="translate(2125.912 3491.528)"><path d="M257.687,260.414a6.1,6.1,0,1,0,6.1,6.1A6.107,6.107,0,0,0,257.687,260.414Z" transform="translate(-251.587 -244.634)" fill="#fff"/><path d="M291.469,240.439a28.546,28.546,0,0,0-14.276-14.276,10.125,10.125,0,1,0,14.276,14.276Z" transform="translate(-263.488 -226.163)" fill="#fff"/></g><path d="M392.48,105.931h40.671A4.068,4.068,0,0,1,437.218,110v24.4a4.068,4.068,0,0,1-4.067,4.067H392.48a4.068,4.068,0,0,1-4.067-4.067V110A4.068,4.068,0,0,1,392.48,105.931Z" transform="translate(1800.538 3330.203)" fill="#962903"/><path d="M434.538,139.855h-24.4a4.068,4.068,0,0,1-4.067-4.067v-8.134a4.068,4.068,0,0,1,4.067-4.067h24.4a4.068,4.068,0,0,1,4.067,4.067v8.134A4.068,4.068,0,0,1,434.538,139.855Z" transform="translate(1791.017 3320.682)" fill="#621704"/><circle cx="4.067" cy="4.067" r="4.067" transform="translate(2209.286 3448.335)" fill="#fff"/><circle cx="6.1" cy="6.1" r="6.1" transform="translate(2221.488 3440.201)" fill="#d7deed"/><path d="M463.1,123.586h-3.694a6.043,6.043,0,0,0,7.761,7.761v-3.694A4.067,4.067,0,0,0,463.1,123.586Z" transform="translate(1762.454 3320.682)" fill="#fff"/><path d="M154.136,148.682H170.4a4.068,4.068,0,0,0,4.067-4.067V136.48a4.068,4.068,0,0,0-4.067-4.067H154.136a4.068,4.068,0,0,0-4.067,4.067v8.134A4.067,4.067,0,0,0,154.136,148.682Z" transform="translate(1929.071 3315.922)" fill="#621704"/><circle cx="12.201" cy="12.201" r="12.201" transform="translate(2042.536 3464.604)" fill="#962903"/><circle cx="4.067" cy="4.067" r="4.067" transform="translate(2050.67 3472.738)" fill="#621704"/><circle cx="12.201" cy="12.201" r="12.201" transform="translate(2054.738 3505.274)" fill="#962903"/><circle cx="4.067" cy="4.067" r="4.067" transform="translate(2062.872 3513.409)" fill="#621704"/></g></g></svg>