<svg xmlns="http://www.w3.org/2000/svg" xmlns:xlink="http://www.w3.org/1999/xlink" width="900" height="650" viewBox="0 0 900 650"><defs><linearGradient id="a" x1="0.5" y1="1" x2="0.5" gradientUnits="objectBoundingBox"><stop offset="0" stop-color="#111"/><stop offset="1" stop-color="#555"/></linearGradient><filter id="b" x="201" y="475" width="498" height="148" filterUnits="userSpaceOnUse"><feOffset input="SourceAlpha"/><feGaussianBlur stdDeviation="5" result="c"/><feFlood flood-opacity="0.161"/><feComposite operator="in" in2="c"/><feComposite in="SourceGraphic"/></filter><filter id="d" x="215" y="12" width="471" height="471" filterUnits="userSpaceOnUse"><feOffset input="SourceAlpha"/><feGaussianBlur stdDeviation="10" result="e"/><feFlood flood-opacity="0.102"/><feComposite operator="in" in2="e"/><feComposite in="SourceGraphic"/></filter><clipPath id="g"><rect width="900" height="650"/></clipPath></defs><g id="f" clip-path="url(#g)"><rect width="900" height="650" fill="#fff"/><rect width="900" height="650" fill="url(#a)"/><g transform="matrix(1, 0, 0, 1, 0, 0)" filter="url(#b)"><text transform="translate(450 543)" fill="#fff" font-size="50" font-family="NotoSans-Bold, Noto Sans" font-weight="700"><tspan x="-233.972" y="0">VISUAL &amp; GRAPHIC</tspan><tspan x="-140.515" y="50">TEMPLATES</tspan></text></g><g transform="matrix(1, 0, 0, 1, 0, 0)" filter="url(#d)"><circle cx="205.5" cy="205.5" r="205.5" transform="translate(245 42)" fill="#fff"/></g><path d="M219.951,217.634H32.26a2.19,2.19,0,0,1-2.19-2.19V2.19A2.19,2.19,0,0,1,32.26,0H219.951a2.19,2.19,0,0,1,2.19,2.19V215.444A2.19,2.19,0,0,1,219.951,217.634Z" transform="translate(323.93 139)" fill="#d168ff"/><path d="M455.274,217.634h-15.9V0h15.9a2.19,2.19,0,0,1,2.19,2.19V215.444A2.19,2.19,0,0,1,455.274,217.634Z" transform="translate(88.606 139)" fill="#b850ff"/><path d="M226.034,152.249H72.852a2.19,2.19,0,0,1-2.19-2.19V108.446a2.19,2.19,0,0,1,2.19-2.19H226.034a2.19,2.19,0,0,1,2.19,2.19v41.613A2.191,2.191,0,0,1,226.034,152.249Z" transform="translate(300.592 77.91)" fill="#fff"/><path d="M382.935,277.28h-37.18a2.19,2.19,0,0,1-2.19-2.19V247.053a2.19,2.19,0,0,1,2.19-2.19h37.18a2.19,2.19,0,0,1,2.19,2.19V275.09A2.19,2.19,0,0,1,382.935,277.28Z" transform="translate(143.691 -1.78)" fill="#a240fc"/><path d="M411.642,277.28H393.5V244.863h18.145a2.19,2.19,0,0,1,2.19,2.19V275.09A2.19,2.19,0,0,1,411.642,277.28Z" transform="translate(114.984 -1.78)" fill="#8d18ff"/><path d="M246.484,277.28H209.3a2.19,2.19,0,0,1-2.19-2.19V247.053a2.19,2.19,0,0,1,2.19-2.19h37.18a2.19,2.19,0,0,1,2.19,2.19V275.09A2.19,2.19,0,0,1,246.484,277.28Z" transform="translate(222.142 -1.78)" fill="#a240fc"/><path d="M275.191,277.28H257.046V244.863h18.145a2.19,2.19,0,0,1,2.19,2.19V275.09A2.19,2.19,0,0,1,275.191,277.28Z" transform="translate(193.434 -1.78)" fill="#8d18ff"/><path d="M110.032,277.28H72.852a2.19,2.19,0,0,1-2.19-2.19V247.053a2.19,2.19,0,0,1,2.19-2.19h37.18a2.19,2.19,0,0,1,2.19,2.19V275.09A2.19,2.19,0,0,1,110.032,277.28Z" transform="translate(300.592 -1.78)" fill="#a240fc"/><path d="M138.739,277.28H120.594V244.863h18.145a2.19,2.19,0,0,1,2.19,2.19V275.09A2.19,2.19,0,0,1,138.739,277.28Z" transform="translate(271.885 -1.78)" fill="#8d18ff"/><path d="M107.779,356.851H66.219a3.285,3.285,0,0,1,0-6.57h41.56a3.285,3.285,0,1,1,0,6.57Z" transform="translate(305.036 -62.388)" fill="#6a0dc4"/><path d="M107.779,390.854H66.219a3.285,3.285,0,0,1,0-6.57h41.56a3.285,3.285,0,1,1,0,6.57Z" transform="translate(305.036 -81.938)" fill="#6a0dc4"/><path d="M107.779,424.857H66.219a3.285,3.285,0,1,1,0-6.57h41.56a3.285,3.285,0,1,1,0,6.57Z" transform="translate(305.036 -101.487)" fill="#6a0dc4"/><path d="M107.779,458.86H66.219a3.285,3.285,0,1,1,0-6.57h41.56a3.285,3.285,0,1,1,0,6.57Z" transform="translate(305.036 -121.037)" fill="#6a0dc4"/><path d="M244.23,356.851H202.671a3.285,3.285,0,0,1,0-6.57H244.23a3.285,3.285,0,0,1,0,6.57Z" transform="translate(226.585 -62.388)" fill="#6a0dc4"/><path d="M244.23,390.854H202.671a3.285,3.285,0,0,1,0-6.57H244.23a3.285,3.285,0,0,1,0,6.57Z" transform="translate(226.585 -81.938)" fill="#6a0dc4"/><path d="M244.23,424.857H202.671a3.285,3.285,0,1,1,0-6.57H244.23a3.285,3.285,0,0,1,0,6.57Z" transform="translate(226.585 -101.487)" fill="#6a0dc4"/><path d="M244.23,458.86H202.671a3.285,3.285,0,1,1,0-6.57H244.23a3.285,3.285,0,1,1,0,6.57Z" transform="translate(226.585 -121.037)" fill="#6a0dc4"/><path d="M380.682,356.851h-41.56a3.285,3.285,0,1,1,0-6.57h41.56a3.285,3.285,0,0,1,0,6.57Z" transform="translate(148.135 -62.388)" fill="#6a0dc4"/><path d="M380.682,390.854h-41.56a3.285,3.285,0,1,1,0-6.57h41.56a3.285,3.285,0,0,1,0,6.57Z" transform="translate(148.135 -81.938)" fill="#6a0dc4"/><path d="M380.682,424.857h-41.56a3.285,3.285,0,1,1,0-6.57h41.56a3.285,3.285,0,0,1,0,6.57Z" transform="translate(148.135 -101.487)" fill="#6a0dc4"/><path d="M380.682,458.86h-41.56a3.285,3.285,0,1,1,0-6.57h41.56a3.285,3.285,0,0,1,0,6.57Z" transform="translate(148.135 -121.037)" fill="#6a0dc4"/></g></svg>