<svg xmlns="http://www.w3.org/2000/svg" xmlns:xlink="http://www.w3.org/1999/xlink" width="900" height="650" viewBox="0 0 900 650"><defs><linearGradient id="a" x1="0.769" y1="1" x2="0.764" gradientUnits="objectBoundingBox"><stop offset="0" stop-color="#962903"/><stop offset="1" stop-color="#e86807"/></linearGradient><filter id="b" x="168" y="475" width="564" height="148" filterUnits="userSpaceOnUse"><feOffset input="SourceAlpha"/><feGaussianBlur stdDeviation="5" result="c"/><feFlood flood-opacity="0.161"/><feComposite operator="in" in2="c"/><feComposite in="SourceGraphic"/></filter><filter id="d" x="215" y="12" width="471" height="471" filterUnits="userSpaceOnUse"><feOffset input="SourceAlpha"/><feGaussianBlur stdDeviation="10" result="e"/><feFlood flood-opacity="0.102"/><feComposite operator="in" in2="e"/><feComposite in="SourceGraphic"/></filter><clipPath id="g"><rect width="900" height="650"/></clipPath></defs><g id="f" clip-path="url(#g)"><rect width="900" height="650" fill="#fff"/><rect width="900" height="650" fill="url(#a)"/><g transform="matrix(1, 0, 0, 1, 0, 0)" filter="url(#b)"><text transform="translate(450 543)" fill="#fff" font-size="50" font-family="NotoSans-Bold, Noto Sans" font-weight="700"><tspan x="-266.943" y="0">DATA VISUALIZATION</tspan><tspan x="-140.515" y="50">TEMPLATES</tspan></text></g><g transform="matrix(1, 0, 0, 1, 0, 0)" filter="url(#d)"><circle cx="205.5" cy="205.5" r="205.5" transform="translate(245 42)" fill="#fff"/></g><g transform="translate(-4421 -1794)"><path d="M50.646,160.031l28.671,18.632-3.383,5.208L47.262,165.237Zm0,0" transform="translate(4741.463 1849.174)" fill="#962903"/><path d="M278.1,104.93l26.545,8.622-1.919,5.906-26.543-8.62Zm0,0" transform="translate(4603.239 1882.445)" fill="#962903"/><path d="M410.706,43.07l4.336,4.445-30.97,30.2-4.335-4.445Zm0,0" transform="translate(4540.711 1919.796)" fill="#962903"/><path d="M185.835,117.188,190.4,121.4l-31.68,34.319-4.562-4.213Zm0,0" transform="translate(4676.919 1875.043)" fill="#962903"/><g transform="translate(4770 1998.618)"><path d="M0,254.855H25.039v89.917H0Zm0,0" transform="translate(0 -206.699)" fill="#ffbb4d"/><path d="M112.2,327.785H137.24v61.023H112.2Zm0,0" transform="translate(-67.747 -250.735)" fill="#ffbb4d"/><path d="M224.4,206.234h25.041V315.415H224.4Zm0,0" transform="translate(-135.493 -177.342)" fill="#ffbb4d"/><path d="M336.6,242.7h25.041v94.734H336.6Zm0,0" transform="translate(-203.24 -199.359)" fill="#ffbb4d"/><path d="M448.8,133.309H473.84V271.382H448.8Zm0,0" transform="translate(-270.989 -133.309)" fill="#ffbb4d"/></g><path d="M25.041,134.567a12.52,12.52,0,1,1-12.52-12.52A12.52,12.52,0,0,1,25.041,134.567Zm0,0" transform="translate(4770 1872.109)" fill="#fc962e"/><path d="M473.838,13.02A12.52,12.52,0,1,1,461.317.5,12.52,12.52,0,0,1,473.838,13.02Zm0,0" transform="translate(4499.014 1945.5)" fill="#fc962e"/><path d="M361.638,122.415a12.52,12.52,0,1,1-12.52-12.52A12.52,12.52,0,0,1,361.638,122.415Zm0,0" transform="translate(4566.76 1879.447)" fill="#fc962e"/><path d="M249.439,85.95a12.52,12.52,0,1,1-12.52-12.52A12.52,12.52,0,0,1,249.439,85.95Zm0,0" transform="translate(4634.507 1901.465)" fill="#fc962e"/><path d="M137.24,207.5a12.52,12.52,0,1,1-12.52-12.52A12.52,12.52,0,0,1,137.24,207.5Zm0,0" transform="translate(4702.253 1828.074)" fill="#fc962e"/></g></g></svg>