<svg xmlns="http://www.w3.org/2000/svg" xmlns:xlink="http://www.w3.org/1999/xlink" width="900" height="650" viewBox="0 0 900 650"><defs><linearGradient id="a" x1="0.769" y1="1" x2="0.764" gradientUnits="objectBoundingBox"><stop offset="0" stop-color="#962903"/><stop offset="1" stop-color="#e86807"/></linearGradient><filter id="b" x="201" y="475" width="498" height="148" filterUnits="userSpaceOnUse"><feOffset input="SourceAlpha"/><feGaussianBlur stdDeviation="5" result="c"/><feFlood flood-opacity="0.161"/><feComposite operator="in" in2="c"/><feComposite in="SourceGraphic"/></filter><filter id="d" x="215" y="12" width="471" height="471" filterUnits="userSpaceOnUse"><feOffset input="SourceAlpha"/><feGaussianBlur stdDeviation="10" result="e"/><feFlood flood-opacity="0.102"/><feComposite operator="in" in2="e"/><feComposite in="SourceGraphic"/></filter><clipPath id="g"><rect width="900" height="650"/></clipPath></defs><g id="f" clip-path="url(#g)"><rect width="900" height="650" fill="#fff"/><rect width="900" height="650" fill="url(#a)"/><g transform="matrix(1, 0, 0, 1, 0, 0)" filter="url(#b)"><text transform="translate(450 543)" fill="#fff" font-size="50" font-family="NotoSans-Bold, Noto Sans" font-weight="700"><tspan x="-233.972" y="0">VISUAL &amp; GRAPHIC</tspan><tspan x="-140.515" y="50">TEMPLATES</tspan></text></g><g transform="matrix(1, 0, 0, 1, 0, 0)" filter="url(#d)"><circle cx="205.5" cy="205.5" r="205.5" transform="translate(245 42)" fill="#fff"/></g><g transform="translate(-4311 -1651)"><path d="M219.951,217.634H32.26a2.19,2.19,0,0,1-2.19-2.19V2.19A2.19,2.19,0,0,1,32.26,0H219.951a2.19,2.19,0,0,1,2.19,2.19V215.444A2.19,2.19,0,0,1,219.951,217.634Z" transform="translate(4634.93 1790)" fill="#ffbb4d"/><path d="M455.274,217.634h-15.9V0h15.9a2.19,2.19,0,0,1,2.19,2.19V215.444A2.19,2.19,0,0,1,455.274,217.634Z" transform="translate(4399.606 1790)" fill="#fc962e"/><path d="M226.034,152.249H72.852a2.19,2.19,0,0,1-2.19-2.19V108.446a2.19,2.19,0,0,1,2.19-2.19H226.034a2.19,2.19,0,0,1,2.19,2.19v41.613A2.191,2.191,0,0,1,226.034,152.249Z" transform="translate(4611.592 1728.91)" fill="#fff"/><path d="M382.935,277.28h-37.18a2.19,2.19,0,0,1-2.19-2.19V247.053a2.19,2.19,0,0,1,2.19-2.19h37.18a2.19,2.19,0,0,1,2.19,2.19V275.09A2.19,2.19,0,0,1,382.935,277.28Z" transform="translate(4454.691 1649.22)" fill="#e86807"/><path d="M411.642,277.28H393.5V244.863h18.145a2.19,2.19,0,0,1,2.19,2.19V275.09A2.19,2.19,0,0,1,411.642,277.28Z" transform="translate(4425.984 1649.22)" fill="#962903"/><path d="M246.484,277.28H209.3a2.19,2.19,0,0,1-2.19-2.19V247.053a2.19,2.19,0,0,1,2.19-2.19h37.18a2.19,2.19,0,0,1,2.19,2.19V275.09A2.19,2.19,0,0,1,246.484,277.28Z" transform="translate(4533.142 1649.22)" fill="#e86807"/><path d="M275.191,277.28H257.046V244.863h18.145a2.19,2.19,0,0,1,2.19,2.19V275.09A2.19,2.19,0,0,1,275.191,277.28Z" transform="translate(4504.434 1649.22)" fill="#962903"/><path d="M110.032,277.28H72.852a2.19,2.19,0,0,1-2.19-2.19V247.053a2.19,2.19,0,0,1,2.19-2.19h37.18a2.19,2.19,0,0,1,2.19,2.19V275.09A2.19,2.19,0,0,1,110.032,277.28Z" transform="translate(4611.592 1649.22)" fill="#e86807"/><path d="M138.739,277.28H120.594V244.863h18.145a2.19,2.19,0,0,1,2.19,2.19V275.09A2.19,2.19,0,0,1,138.739,277.28Z" transform="translate(4582.885 1649.22)" fill="#962903"/><g transform="translate(4678.97 1938.893)"><path d="M107.779,356.851H66.219a3.285,3.285,0,0,1,0-6.57h41.56a3.285,3.285,0,1,1,0,6.57Z" transform="translate(-62.934 -350.281)" fill="#621704"/><path d="M107.779,390.854H66.219a3.285,3.285,0,0,1,0-6.57h41.56a3.285,3.285,0,1,1,0,6.57Z" transform="translate(-62.934 -369.83)" fill="#621704"/><path d="M107.779,424.857H66.219a3.285,3.285,0,1,1,0-6.57h41.56a3.285,3.285,0,1,1,0,6.57Z" transform="translate(-62.934 -389.38)" fill="#621704"/><path d="M107.779,458.86H66.219a3.285,3.285,0,1,1,0-6.57h41.56a3.285,3.285,0,1,1,0,6.57Z" transform="translate(-62.934 -408.929)" fill="#621704"/><path d="M244.23,356.851H202.671a3.285,3.285,0,0,1,0-6.57H244.23a3.285,3.285,0,0,1,0,6.57Z" transform="translate(-141.385 -350.281)" fill="#621704"/><path d="M244.23,390.854H202.671a3.285,3.285,0,0,1,0-6.57H244.23a3.285,3.285,0,0,1,0,6.57Z" transform="translate(-141.385 -369.83)" fill="#621704"/><path d="M244.23,424.857H202.671a3.285,3.285,0,1,1,0-6.57H244.23a3.285,3.285,0,0,1,0,6.57Z" transform="translate(-141.385 -389.38)" fill="#621704"/><path d="M244.23,458.86H202.671a3.285,3.285,0,1,1,0-6.57H244.23a3.285,3.285,0,1,1,0,6.57Z" transform="translate(-141.385 -408.929)" fill="#621704"/><path d="M380.682,356.851h-41.56a3.285,3.285,0,1,1,0-6.57h41.56a3.285,3.285,0,0,1,0,6.57Z" transform="translate(-219.835 -350.281)" fill="#621704"/><path d="M380.682,390.854h-41.56a3.285,3.285,0,1,1,0-6.57h41.56a3.285,3.285,0,0,1,0,6.57Z" transform="translate(-219.835 -369.83)" fill="#621704"/><path d="M380.682,424.857h-41.56a3.285,3.285,0,1,1,0-6.57h41.56a3.285,3.285,0,0,1,0,6.57Z" transform="translate(-219.835 -389.38)" fill="#621704"/><path d="M380.682,458.86h-41.56a3.285,3.285,0,1,1,0-6.57h41.56a3.285,3.285,0,0,1,0,6.57Z" transform="translate(-219.835 -408.929)" fill="#621704"/></g></g></g></svg>