<svg xmlns="http://www.w3.org/2000/svg" xmlns:xlink="http://www.w3.org/1999/xlink" width="900" height="650" viewBox="0 0 900 650"><defs><linearGradient id="a" x1="0.5" y1="1" x2="0.5" gradientUnits="objectBoundingBox"><stop offset="0" stop-color="#111"/><stop offset="1" stop-color="#555"/></linearGradient><filter id="b" x="29" y="475" width="842" height="148" filterUnits="userSpaceOnUse"><feOffset input="SourceAlpha"/><feGaussianBlur stdDeviation="5" result="c"/><feFlood flood-opacity="0.161"/><feComposite operator="in" in2="c"/><feComposite in="SourceGraphic"/></filter><filter id="d" x="215" y="12" width="471" height="471" filterUnits="userSpaceOnUse"><feOffset input="SourceAlpha"/><feGaussianBlur stdDeviation="10" result="e"/><feFlood flood-opacity="0.102"/><feComposite operator="in" in2="e"/><feComposite in="SourceGraphic"/></filter><clipPath id="g"><rect width="900" height="650"/></clipPath></defs><g id="f" clip-path="url(#g)"><rect width="900" height="650" fill="#fff"/><rect width="900" height="650" fill="url(#a)"/><g transform="matrix(1, 0, 0, 1, 0, 0)" filter="url(#b)"><text transform="translate(450 543)" fill="#fff" font-size="50" font-family="NotoSans-Bold, Noto Sans" font-weight="700"><tspan x="-405.75" y="0">SOCIAL MEDIA, TODAY@BROWN,</tspan><tspan x="-283.167" y="50">&amp; GRAPHICS REQUESTS</tspan></text></g><g transform="matrix(1, 0, 0, 1, 0, 0)" filter="url(#d)"><circle cx="205.5" cy="205.5" r="205.5" transform="translate(245 42)" fill="#fff"/></g><rect width="154.079" height="154.079" transform="translate(343.557 193.365)" fill="#fff"/><path d="M163.136,302.536H9.058A9.058,9.058,0,0,1,0,293.478V139.4a9.058,9.058,0,0,1,9.058-9.058H163.135a9.058,9.058,0,0,1,9.058,9.058V293.478A9.057,9.057,0,0,1,163.136,302.536ZM18.115,284.42H154.078V148.458H18.115Z" transform="translate(334.499 53.964)" fill="#b850ff"/><path d="M182.713,227.77a10.351,10.351,0,0,1-10.352-10.352v-8.335l-45.872,45.872L111.92,240.386,98.552,301.191l60.805-13.368-14.569-14.569,45.484-45.484h-7.56Z" transform="translate(280.411 10.749)" fill="#8d18ff"/><path d="M216.056,217.418v-8.335l-37.89,37.89a24.659,24.659,0,0,0,18.24,18.359l37.562-37.562h-7.56A10.351,10.351,0,0,1,216.056,217.418Z" transform="translate(236.717 10.749)" fill="#6a0dc4" opacity="0.1"/><path d="M260.139,130.343H176.747v18.115h74.335v74.335h6.346a23.84,23.84,0,0,0,5.424,0H269.2V139.4A9.058,9.058,0,0,0,260.139,130.343Z" transform="translate(237.496 53.964)" opacity="0.1"/><rect width="117.615" height="117.615" transform="translate(438.829 134.558)" fill="#fff"/><path d="M337.835,0H220.221a9.058,9.058,0,0,0-9.058,9.058V126.671a9.058,9.058,0,0,0,9.058,9.058h57.174a8.692,8.692,0,0,0,3.266,0h57.173a9.058,9.058,0,0,0,9.058-9.058V9.058A9.056,9.056,0,0,0,337.835,0ZM229.278,57.015H269.97v21.7H229.278v-21.7Zm58.807,0h40.692v21.7H288.086ZM328.777,38.9H288.086V18.115h40.692ZM269.97,18.115V38.9H229.278V18.115ZM229.278,96.83H269.97v20.784H229.278V96.83Zm58.807,20.784V96.83h40.692v20.784Z" transform="translate(218.607 125.5)" fill="#d168ff"/></g></svg>