<svg xmlns="http://www.w3.org/2000/svg" xmlns:xlink="http://www.w3.org/1999/xlink" width="900" height="650" viewBox="0 0 900 650"><defs><linearGradient id="a" x1="0.5" y1="1" x2="0.5" gradientUnits="objectBoundingBox"><stop offset="0" stop-color="#111"/><stop offset="1" stop-color="#555"/></linearGradient><filter id="b" x="215" y="12" width="471" height="471" filterUnits="userSpaceOnUse"><feOffset input="SourceAlpha"/><feGaussianBlur stdDeviation="10" result="c"/><feFlood flood-opacity="0.102"/><feComposite operator="in" in2="c"/><feComposite in="SourceGraphic"/></filter><filter id="d" x="248" y="475" width="404" height="148" filterUnits="userSpaceOnUse"><feOffset input="SourceAlpha"/><feGaussianBlur stdDeviation="5" result="e"/><feFlood flood-opacity="0.161"/><feComposite operator="in" in2="e"/><feComposite in="SourceGraphic"/></filter><clipPath id="g"><rect width="900" height="650"/></clipPath></defs><g id="f" clip-path="url(#g)"><rect width="900" height="650" fill="#fff"/><rect width="900" height="650" fill="url(#a)"/><g transform="matrix(1, 0, 0, 1, 0, 0)" filter="url(#b)"><circle cx="205.5" cy="205.5" r="205.5" transform="translate(245 42)" fill="#fff"/></g><g transform="matrix(1, 0, 0, 1, 0, 0)" filter="url(#d)"><text transform="translate(450 543)" fill="#fff" font-size="50" font-family="NotoSans-Bold, Noto Sans" font-weight="700"><tspan x="-186.633" y="0">AUTONOMOUS</tspan><tspan x="-186.963" y="50">FLYING DRONE</tspan></text></g><g transform="translate(-1730 -3294)"><path d="M127.037,349.458q-.189,0-.38-.017a4.272,4.272,0,0,1-3.88-4.63l4.023-45.629a50.67,50.67,0,0,1,22.844-38.155l14.5-9.5a4.271,4.271,0,1,1,4.68,7.146l-14.5,9.5a42.174,42.174,0,0,0-19.014,31.758l-4.023,45.629A4.271,4.271,0,0,1,127.037,349.458Z" transform="translate(1982.155 3295.703)" fill="#621704"/><path d="M347.288,349.458a4.272,4.272,0,0,1-4.25-3.9l-4.023-45.629A42.174,42.174,0,0,0,320,268.174l-14.5-9.5a4.271,4.271,0,1,1,4.68-7.146l14.5,9.5a50.669,50.669,0,0,1,22.844,38.155l4.023,45.629a4.272,4.272,0,0,1-3.88,4.63C347.541,349.453,347.414,349.458,347.288,349.458Z" transform="translate(1904.322 3295.703)" fill="#621704"/><path d="M252.073,315.74a4.272,4.272,0,0,1-4.271-4.271V293.557a4.271,4.271,0,0,1,8.543,0v17.911A4.272,4.272,0,0,1,252.073,315.74Z" transform="translate(1928.328 3279.15)" fill="#621704"/><path d="M251.934,320.735h-34.77a11.222,11.222,0,0,0-11.21,11.21v16.892a11.223,11.223,0,0,0,11.21,11.21h34.77a11.222,11.222,0,0,0,11.21-11.21V331.945A11.222,11.222,0,0,0,251.934,320.735Z" transform="translate(1946.342 3265.612)" fill="#962903"/><path d="M251.934,347.819h-34.77a11.221,11.221,0,0,1-11.116-9.828,11.178,11.178,0,0,0-.095,1.382v16.892a11.223,11.223,0,0,0,11.21,11.21h34.77a11.223,11.223,0,0,0,11.21-11.21V339.373a11.165,11.165,0,0,0-.095-1.382A11.219,11.219,0,0,1,251.934,347.819Z" transform="translate(1946.343 3258.183)" fill="#621704"/><path d="M259.827,250.833H196.306a4.272,4.272,0,0,0-4.271,4.271v21.9a4.272,4.272,0,0,0,4.271,4.271h63.521a4.272,4.272,0,0,0,4.271-4.271V255.1A4.271,4.271,0,0,0,259.827,250.833Z" transform="translate(1952.334 3295.703)" fill="#fc962e"/><path d="M259.827,250.833H196.306a4.272,4.272,0,0,0-4.271,4.271v11.978H264.1V255.1A4.271,4.271,0,0,0,259.827,250.833Z" transform="translate(1952.334 3295.703)" fill="#e86807"/><path d="M273.215,181.691H100.031a4.271,4.271,0,1,0,0,8.543H118.07l5.009,19.239a26.925,26.925,0,0,0,26.051,20.137h74.987a26.925,26.925,0,0,0,26.051-20.137l5.009-19.239h18.038a4.271,4.271,0,0,0,0-8.543Z" transform="translate(1993.778 3325.466)" fill="#ffbb4d"/><g transform="translate(2113.846 3523.375)"><path d="M246.649,222.18h-83.3c-10.219,0-19.474-4.668-24.9-12.014l3.011,11.564A26.925,26.925,0,0,0,167.5,241.867H242.49A26.925,26.925,0,0,0,268.54,221.73l3.011-11.564C266.122,217.511,256.867,222.18,246.649,222.18Z" transform="translate(-138.441 -210.166)" fill="#fc962e"/></g><path d="M74.836,126.368a4.272,4.272,0,0,1-4.271-4.271V90.87a4.271,4.271,0,1,1,8.543,0V122.1A4.272,4.272,0,0,1,74.836,126.368Z" transform="translate(2004.624 3366.401)" fill="#621704"/><path d="M250.749,357a7.161,7.161,0,1,1,7.161-7.161A7.17,7.17,0,0,1,250.749,357Z" transform="translate(1930.142 3256.168)" fill="#fc962e"/><path d="M84.649,119.4H4.271a4.271,4.271,0,0,1,0-8.543H84.649a4.271,4.271,0,0,1,0,8.543Z" transform="translate(2035 3355.959)" fill="#962903"/><path d="M63.991,141.427A18.642,18.642,0,0,0,45.37,160.048v17.164a18.621,18.621,0,0,0,37.241,0V160.048A18.641,18.641,0,0,0,63.991,141.427Z" transform="translate(2015.469 3342.799)" fill="#e86807"/><path d="M63.991,189.043a18.641,18.641,0,0,1-18.567-17.278c-.032.444-.054.891-.054,1.342v17.164a18.621,18.621,0,0,0,37.241,0V173.107c0-.452-.022-.9-.054-1.342A18.641,18.641,0,0,1,63.991,189.043Z" transform="translate(2015.469 3329.739)" fill="#621704"/><path d="M429.309,126.368a4.272,4.272,0,0,1-4.271-4.271V90.87a4.271,4.271,0,1,1,8.543,0V122.1A4.272,4.272,0,0,1,429.309,126.368Z" transform="translate(1852.033 3366.401)" fill="#621704"/><path d="M439.122,119.4H358.744a4.271,4.271,0,1,1,0-8.543h80.378a4.271,4.271,0,0,1,0,8.543Z" transform="translate(1882.409 3355.959)" fill="#962903"/><path d="M418.464,141.427a18.642,18.642,0,0,0-18.621,18.621v17.164a18.621,18.621,0,0,0,37.241,0V160.048A18.642,18.642,0,0,0,418.464,141.427Z" transform="translate(1862.878 3342.799)" fill="#e86807"/><path d="M418.464,189.043A18.641,18.641,0,0,1,399.9,171.765c-.032.444-.054.891-.054,1.342v17.164a18.621,18.621,0,0,0,37.241,0V173.107c0-.452-.022-.9-.054-1.342A18.641,18.641,0,0,1,418.464,189.043Z" transform="translate(1862.878 3329.739)" fill="#621704"/></g></g></svg>