<svg xmlns="http://www.w3.org/2000/svg" xmlns:xlink="http://www.w3.org/1999/xlink" width="900" height="650" viewBox="0 0 900 650"><defs><linearGradient id="a" x1="0.5" y1="1" x2="0.5" gradientUnits="objectBoundingBox"><stop offset="0" stop-color="#962903"/><stop offset="1" stop-color="#621704"/></linearGradient><filter id="b" x="215" y="12" width="471" height="471" filterUnits="userSpaceOnUse"><feOffset input="SourceAlpha"/><feGaussianBlur stdDeviation="10" result="c"/><feFlood flood-opacity="0.102"/><feComposite operator="in" in2="c"/><feComposite in="SourceGraphic"/></filter><filter id="d" x="197" y="475" width="506" height="148" filterUnits="userSpaceOnUse"><feOffset input="SourceAlpha"/><feGaussianBlur stdDeviation="5" result="e"/><feFlood flood-opacity="0.161"/><feComposite operator="in" in2="e"/><feComposite in="SourceGraphic"/></filter><clipPath id="g"><rect width="900" height="650"/></clipPath></defs><g id="f" clip-path="url(#g)"><rect width="900" height="650" fill="#fff"/><rect width="900" height="650" fill="url(#a)"/><g transform="matrix(1, 0, 0, 1, 0, 0)" filter="url(#b)"><circle cx="205.5" cy="205.5" r="205.5" transform="translate(245 42)" fill="#fff"/></g><g transform="matrix(1, 0, 0, 1, 0, 0)" filter="url(#d)"><text transform="translate(450 543)" fill="#fff" font-size="50" font-family="NotoSans-Bold, Noto Sans" font-weight="700"><tspan x="-237.854" y="0">BAGS, BROCHURES,</tspan><tspan x="-140.027" y="50">&amp; STICKERS</tspan></text></g><g transform="translate(-1981.018 -2325.018)"><g transform="translate(2310 2451)"><path d="M335.856,186.381,243.907,243.9l-57.52,91.951A121.171,121.171,0,0,0,335.856,186.381Z" transform="translate(-98.233 -98.229)" fill="#ffbb4d"/><path d="M121.079,0A121.1,121.1,0,0,0,88.154,237.625L237.624,88.152A121.13,121.13,0,0,0,121.079,0Z" fill="#e86807"/><path d="M330.816,181.322,181.343,330.8A121.181,121.181,0,0,1,330.816,181.322Z" transform="translate(-93.186 -93.176)" fill="#fc962e"/></g></g></g></svg>