<svg xmlns="http://www.w3.org/2000/svg" xmlns:xlink="http://www.w3.org/1999/xlink" width="900" height="650" viewBox="0 0 900 650"><defs><linearGradient id="a" x1="0.5" y1="1" x2="0.5" gradientUnits="objectBoundingBox"><stop offset="0" stop-color="#111"/><stop offset="1" stop-color="#555"/></linearGradient><filter id="b" x="215" y="12" width="471" height="471" filterUnits="userSpaceOnUse"><feOffset input="SourceAlpha"/><feGaussianBlur stdDeviation="10" result="c"/><feFlood flood-opacity="0.102"/><feComposite operator="in" in2="c"/><feComposite in="SourceGraphic"/></filter><filter id="d" x="96" y="475" width="708" height="148" filterUnits="userSpaceOnUse"><feOffset input="SourceAlpha"/><feGaussianBlur stdDeviation="5" result="e"/><feFlood flood-opacity="0.161"/><feComposite operator="in" in2="e"/><feComposite in="SourceGraphic"/></filter><clipPath id="g"><rect width="900" height="650"/></clipPath></defs><g id="f" clip-path="url(#g)"><rect width="900" height="650" fill="#fff"/><rect width="900" height="650" fill="url(#a)"/><g transform="matrix(1, 0, 0, 1, 0, 0)" filter="url(#b)"><circle cx="205.5" cy="205.5" r="205.5" transform="translate(245 42)" fill="#fff"/></g><path d="M233.953,218.279a91.977,91.977,0,1,0-91.977,92.22A92.1,92.1,0,0,0,233.953,218.279Zm0,0" transform="translate(287.284 49.853)" fill="#b850ff"/><path d="M206.564,126.059a92.372,92.372,0,0,0-13.888,1.045,92.272,92.272,0,0,1,0,182.35,92.206,92.206,0,1,0,13.888-183.4Zm0,0" transform="translate(222.697 49.853)" fill="#8d18ff"/><g transform="translate(337.284 176.098)"><path d="M180.03,162.053c-14.168,8.879-24.8,23.083-16.826,39.067s25.681,9.766,42.064,7.547,3.985,48.39,13.726,60.82,37.192-12.43,34.536-28.413c-3.934-23.663-5.313-31.964,26.566-48.833l.086-.032a92.077,92.077,0,0,0-82.437-65.81l0,.139S194.2,153.174,180.03,162.053Zm0,0" transform="translate(-100.008 -126.398)" fill="#d168ff"/><path d="M323.34,163.238l.019.015A.116.116,0,0,1,323.34,163.238Zm0,0" transform="translate(-173.737 -143.075)" fill="#d168ff"/><path d="M343.891,182.895a0,0,0,0,0,0,0Zm0,0" transform="translate(-183.04 -151.973)" fill="#d168ff"/><path d="M80.874,309.708c-4.255-6.489,7.528-21.751,10.183-33.294S77.774,265.758,72.9,261.762s-11.513-21.309-16.383-25.3l-.778-.614A92.474,92.474,0,0,0,87.487,342.273l.028-1.933A42.454,42.454,0,0,0,80.874,309.708Zm0,0" transform="translate(-50 -175.943)" fill="#d168ff"/><path d="M324.132,335.637l-.058-.344a91.667,91.667,0,0,1-7.641,20.242C321.665,349.361,325.161,341.833,324.132,335.637Zm0,0" transform="translate(-170.611 -220.962)" fill="#d168ff"/></g><path d="M227.7,126.4l0,.139s-.3,2.223-1.056,5.6a92.258,92.258,0,0,1,59.116,77.83c4.064-5.559,11.5-10.951,24.3-17.721l.086-.032A92.077,92.077,0,0,0,227.7,126.4Zm0,0" transform="translate(207.323 49.699)" fill="#a240fc"/><path d="M119.218,316.512a120.33,120.33,0,0,1-19.633-1.618A118.926,118.926,0,0,1,1.618,178.176a4.166,4.166,0,1,1,8.22,1.358,110.605,110.605,0,0,0,218.254,36.041,110.6,110.6,0,0,0-91.1-127.139,4.166,4.166,0,1,1,1.355-8.22,118.947,118.947,0,0,1-19.126,236.3Zm0,0" transform="translate(309.918 70.631)" fill="#6a0dc4"/><path d="M112,100.644C67.518,93.1,39.926,37.1,39.926,37.1S84.449-6.67,128.926.875,201,64.421,201,64.421,156.474,108.189,112,100.644Zm0,0" transform="translate(291.844 106.918)" fill="#a240fc"/><path d="M181.719.876a69.027,69.027,0,0,0-25.172.633c42.62,9.569,68.91,62.913,68.91,62.913s-29.145,28.646-63.831,35.59c1.045.235,2.1.451,3.162.633,44.478,7.545,89-36.223,89-36.223S226.2,8.42,181.719.876Zm0,0" transform="translate(239.052 106.917)" fill="#8d18ff"/><path d="M198.482,59.868l-43.5-7.337L114.356.215a76.5,76.5,0,0,0-9.621,1.2L142.842,50.48l-32.8-5.533L82.058,8.739c-2.625,1.184-5.178,2.442-7.639,3.746L97.93,42.9,43.7,33.753c-2.435,2.127-3.771,3.44-3.771,3.44s.894,1.811,2.608,4.815l53.938,9.1L66.558,74.237c1.926,1.984,3.947,3.945,6.059,5.847l35.037-27.09,34.722,5.858L95.153,95.388a69.359,69.359,0,0,0,9.084,3.506l49.32-38.154,43.524,7.342c2.523-2.2,3.915-3.564,3.915-3.564S200.135,62.773,198.482,59.868Zm0,0" transform="translate(291.844 106.821)" fill="#6a0dc4"/><path d="M386.559,53.352c11.932-28.234,53.273-37.739,53.273-37.739s22,36.27,10.065,64.5-53.273,37.739-53.273,37.739S374.627,81.586,386.559,53.352Zm0,0" transform="translate(136.534 99.85)" fill="#a240fc"/><path d="M447.857,15.613A110.512,110.512,0,0,0,427.326,23.1c5.71,12.1,14.763,36.647,6.153,57.017-6.241,14.769-20.531,24.413-32.741,30.252,2.2,4.669,3.912,7.487,3.912,7.487s41.341-9.505,53.273-37.739S447.857,15.613,447.857,15.613Zm0,0" transform="translate(128.51 99.85)" fill="#8d18ff"/><path d="M461.847,56.831,430.055,70.167l20.873-49.9c-1.494-2.95-2.527-4.652-2.527-4.652s-1.967.453-5.167,1.454L421.662,68.639,408.285,35.725a57.366,57.366,0,0,0-6.343,6.525l15.158,37.3-14.239,34.04c1.39,2.713,2.333,4.269,2.333,4.269s2.138-.492,5.576-1.582l14.7-35.148,36.362-15.252A59.677,59.677,0,0,0,461.847,56.831Zm0,0" transform="translate(127.965 99.85)" fill="#6a0dc4"/><g transform="matrix(1, 0, 0, 1, 0, 0)" filter="url(#d)"><text transform="translate(450 543)" fill="#fff" font-size="50" font-family="NotoSans-Bold, Noto Sans" font-weight="700"><tspan x="-338.672" y="0">OFFICE OF SUSTAINABILITY</tspan><tspan x="-224.451" y="50">MARKETING PLAN</tspan></text></g></g></svg>