<svg xmlns="http://www.w3.org/2000/svg" xmlns:xlink="http://www.w3.org/1999/xlink" width="900" height="650" viewBox="0 0 900 650"><defs><linearGradient id="a" x1="0.5" y1="1" x2="0.5" gradientUnits="objectBoundingBox"><stop offset="0" stop-color="#111"/><stop offset="1" stop-color="#555"/></linearGradient><filter id="b" x="218" y="475" width="464" height="148" filterUnits="userSpaceOnUse"><feOffset input="SourceAlpha"/><feGaussianBlur stdDeviation="5" result="c"/><feFlood flood-opacity="0.161"/><feComposite operator="in" in2="c"/><feComposite in="SourceGraphic"/></filter><filter id="d" x="215" y="12" width="471" height="471" filterUnits="userSpaceOnUse"><feOffset input="SourceAlpha"/><feGaussianBlur stdDeviation="10" result="e"/><feFlood flood-opacity="0.102"/><feComposite operator="in" in2="e"/><feComposite in="SourceGraphic"/></filter><clipPath id="g"><rect width="900" height="650"/></clipPath></defs><g id="f" clip-path="url(#g)"><rect width="900" height="650" fill="#fff"/><rect width="900" height="650" fill="url(#a)"/><g transform="matrix(1, 0, 0, 1, 0, 0)" filter="url(#b)"><text transform="translate(450 543)" fill="#fff" font-size="50" font-family="NotoSans-Bold, Noto Sans" font-weight="700"><tspan x="-156.458" y="0">PERSONAS &amp;</tspan><tspan x="-216.87" y="50">STORYBOARDING</tspan></text></g><g transform="matrix(1, 0, 0, 1, 0, 0)" filter="url(#d)"><circle cx="205.5" cy="205.5" r="205.5" transform="translate(245 42)" fill="#fff"/></g><path d="M224.268,236.4H12.135A12.134,12.134,0,0,1,0,224.268V12.135A12.134,12.134,0,0,1,12.135,0H224.268A12.134,12.134,0,0,1,236.4,12.135V224.268A12.134,12.134,0,0,1,224.268,236.4Zm0,0" transform="translate(331.872 128.872)" fill="#00b8fc"/><path d="M483.272,12.131V224.266A12.135,12.135,0,0,1,471.135,236.4H458.629a12.134,12.134,0,0,0,12.135-12.136V12.131A12.133,12.133,0,0,0,458.629,0h12.506A12.134,12.134,0,0,1,483.272,12.131Zm0,0" transform="translate(85.003 128.872)" fill="#009cd6"/><path d="M124.9,108.978H41.63a2.533,2.533,0,0,1-2.532-2.532v-57.8a2.533,2.533,0,0,1,2.532-2.532H124.9a2.533,2.533,0,0,1,2.532,2.532v57.8A2.532,2.532,0,0,1,124.9,108.978Zm0,0" transform="translate(310.827 104.048)" fill="#fff"/><path d="M367.4,108.978H284.134a2.533,2.533,0,0,1-2.532-2.532v-57.8a2.533,2.533,0,0,1,2.532-2.532H367.4a2.532,2.532,0,0,1,2.532,2.532v57.8A2.531,2.531,0,0,1,367.4,108.978Zm0,0" transform="translate(180.292 104.048)" fill="#fff"/><path d="M125.049,338.748H41.477a2.378,2.378,0,0,1-2.379-2.379v-57.95a2.533,2.533,0,0,1,2.532-2.532H124.9a2.533,2.533,0,0,1,2.532,2.532v57.95A2.378,2.378,0,0,1,125.049,338.748Zm0,0" transform="translate(310.827 -19.631)" fill="#fff"/><path d="M367.4,338.748H284.134a2.533,2.533,0,0,1-2.532-2.532v-57.8a2.533,2.533,0,0,1,2.532-2.532H367.4a2.532,2.532,0,0,1,2.532,2.532v57.8A2.531,2.531,0,0,1,367.4,338.748Zm0,0" transform="translate(180.292 -19.631)" fill="#fff"/><path d="M214.885,48.652v57.8a2.531,2.531,0,0,1-2.532,2.53H201.578a2.53,2.53,0,0,0,2.53-2.53v-57.8a2.529,2.529,0,0,0-2.53-2.53h10.775A2.531,2.531,0,0,1,214.885,48.652Zm0,0" transform="translate(223.367 104.046)" fill="#009cd6"/><path d="M457.393,48.652v57.8a2.531,2.531,0,0,1-2.532,2.53H444.086a2.532,2.532,0,0,0,2.53-2.53v-57.8a2.532,2.532,0,0,0-2.53-2.53h10.775A2.531,2.531,0,0,1,457.393,48.652Zm0,0" transform="translate(92.831 104.046)" fill="#009cd6"/><path d="M214.885,278.421v57.95a2.377,2.377,0,0,1-2.379,2.379H201.73a2.379,2.379,0,0,0,2.379-2.379v-57.95a2.529,2.529,0,0,0-2.53-2.53h10.775A2.531,2.531,0,0,1,214.885,278.421Zm0,0" transform="translate(223.367 -19.633)" fill="#009cd6"/><path d="M215.062,360.68v21.333a2.375,2.375,0,0,1-2.379,2.377H201.906a2.377,2.377,0,0,0,2.379-2.377V360.68Zm0,0" transform="translate(223.191 -65.273)" fill="#eeb900"/><path d="M457.393,278.421v57.8a2.531,2.531,0,0,1-2.532,2.53H444.086a2.532,2.532,0,0,0,2.53-2.53v-57.8a2.532,2.532,0,0,0-2.53-2.53h10.775A2.531,2.531,0,0,1,457.393,278.421Zm0,0" transform="translate(92.831 -19.633)" fill="#009cd6"/><path d="M132.093,121.449H100.047V71.664a2.38,2.38,0,0,1,2.379-2.379h27.289a2.38,2.38,0,0,1,2.379,2.379Zm0,0" transform="translate(278.019 91.578)" fill="#0080b0"/><path d="M157.081,71.66v49.787h-8.23V71.66a2.377,2.377,0,0,0-2.379-2.379H154.7A2.379,2.379,0,0,1,157.081,71.66Zm0,0" transform="translate(253.029 91.58)" fill="#005270"/><path d="M141.294,129.922a3.567,3.567,0,0,1-3.568-3.568v-4.74a3.568,3.568,0,0,1,7.137,0v4.74A3.569,3.569,0,0,1,141.294,129.922Zm0,0" transform="translate(257.737 65.33)" fill="#d9e7ec"/><path d="M354.25,121.449H322.2V71.664a2.38,2.38,0,0,1,2.379-2.379h27.289a2.38,2.38,0,0,1,2.379,2.379Zm0,0" transform="translate(158.438 91.578)" fill="#0080b0"/><path d="M378.253,71.66v49.787h-9.078V71.66a2.38,2.38,0,0,0-2.379-2.379h9.078A2.38,2.38,0,0,1,378.253,71.66Zm0,0" transform="translate(134.434 91.58)" fill="#005270"/><path d="M401.785,159.246H385.813a2.38,2.38,0,0,1-2.379-2.379V146.98a7.477,7.477,0,0,1,7.478-7.476h5.775a7.477,7.477,0,0,1,7.478,7.476v9.887A2.38,2.38,0,0,1,401.785,159.246Zm0,0" transform="translate(125.479 53.78)" fill="#009cd6"/><path d="M413.178,146.982v9.886a2.38,2.38,0,0,1-2.379,2.379h-3.146V146.982a7.478,7.478,0,0,0-7.478-7.478H405.7A7.479,7.479,0,0,1,413.178,146.982Zm0,0" transform="translate(116.467 53.78)" fill="#0080b0"/><path d="M404.123,107.886a10.612,10.612,0,1,1-10.612-10.612A10.612,10.612,0,0,1,404.123,107.886Zm0,0" transform="translate(125.767 76.512)" fill="#009cd6"/><path d="M413.274,107.888a10.615,10.615,0,0,1-13.379,10.243,10.61,10.61,0,0,0,0-20.491,10.615,10.615,0,0,1,13.379,10.248Zm0,0" transform="translate(116.618 76.512)" fill="#0080b0"/><path d="M63.124,351.219H41.477A2.378,2.378,0,0,1,39.1,348.84V299.055H60.745a2.379,2.379,0,0,1,2.379,2.379Zm0,0" transform="translate(310.827 -32.102)" fill="#0080b0"/><path d="M78,301.43v49.787H69.121V301.43a2.377,2.377,0,0,0-2.379-2.379h8.883A2.38,2.38,0,0,1,78,301.43Zm0,0" transform="translate(295.946 -32.1)" fill="#005270"/><path d="M101.371,337.265a10.612,10.612,0,1,1-10.612-10.612A10.612,10.612,0,0,1,101.371,337.265Zm0,0" transform="translate(288.73 -46.957)" fill="#009cd6"/><path d="M99.033,388.758H83.063a2.379,2.379,0,0,1-2.379-2.379v-9.887a7.476,7.476,0,0,1,7.476-7.476h5.775a7.477,7.477,0,0,1,7.478,7.476v9.887A2.379,2.379,0,0,1,99.033,388.758Zm0,0" transform="translate(288.442 -69.76)" fill="#009cd6"/><path d="M110.522,337.269a10.614,10.614,0,0,1-13.377,10.243,10.61,10.61,0,0,0,0-20.489,10.614,10.614,0,0,1,13.377,10.246Zm0,0" transform="translate(279.581 -46.959)" fill="#0080b0"/><path d="M110.424,376.491v9.886a2.38,2.38,0,0,1-2.379,2.379H104.9V376.491a7.48,7.48,0,0,0-7.478-7.48h5.524A7.48,7.48,0,0,1,110.424,376.491Zm0,0" transform="translate(279.432 -69.758)" fill="#0080b0"/><path d="M215.062,360.68v21.333a2.375,2.375,0,0,1-2.379,2.377H201.906a2.377,2.377,0,0,0,2.379-2.377V360.68Zm0,0" transform="translate(223.191 -65.273)" fill="#009cd6"/><path d="M392.074,388.758H376.1a2.38,2.38,0,0,1-2.379-2.379v-9.887a7.477,7.477,0,0,1,7.478-7.476h5.775a7.476,7.476,0,0,1,7.476,7.476v9.887A2.378,2.378,0,0,1,392.074,388.758Zm0,0" transform="translate(130.706 -69.76)" fill="#009cd6"/><path d="M394.411,337.265A10.612,10.612,0,1,1,383.8,326.652,10.611,10.611,0,0,1,394.411,337.265Zm0,0" transform="translate(130.994 -46.957)" fill="#009cd6"/><path d="M403.563,337.269a10.615,10.615,0,0,1-13.379,10.243,10.609,10.609,0,0,0,0-20.489,10.615,10.615,0,0,1,13.379,10.246Zm0,0" transform="translate(121.845 -46.959)" fill="#0080b0"/><path d="M403.465,376.491v9.886a2.378,2.378,0,0,1-2.377,2.379h-3.146V376.491a7.48,7.48,0,0,0-7.478-7.48h5.523A7.479,7.479,0,0,1,403.465,376.491Zm0,0" transform="translate(121.694 -69.758)" fill="#0080b0"/><path d="M331.362,388.758H315.391a2.379,2.379,0,0,1-2.379-2.379v-9.887a7.476,7.476,0,0,1,7.476-7.476h5.777a7.476,7.476,0,0,1,7.476,7.476v9.887A2.379,2.379,0,0,1,331.362,388.758Zm0,0" transform="translate(163.385 -69.76)" fill="#009cd6"/><path d="M342.752,376.491v9.886a2.379,2.379,0,0,1-2.379,2.379H337.23V376.491a7.48,7.48,0,0,0-7.48-7.48h5.524A7.479,7.479,0,0,1,342.752,376.491Zm0,0" transform="translate(154.375 -69.758)" fill="#0080b0"/><path d="M333.7,337.265a10.612,10.612,0,1,1-10.611-10.612A10.611,10.611,0,0,1,333.7,337.265Zm0,0" transform="translate(163.673 -46.957)" fill="#009cd6"/><path d="M342.85,337.269a10.614,10.614,0,0,1-13.377,10.243,10.61,10.61,0,0,0,0-20.489,10.614,10.614,0,0,1,13.377,10.246Zm0,0" transform="translate(154.525 -46.959)" fill="#0080b0"/><path d="M66.774,231.988H41.451a3.463,3.463,0,0,1,0-6.926H66.776a3.463,3.463,0,1,1,0,6.926Zm0,0" transform="translate(311.424 7.726)" fill="#009cd6"/><path d="M217.436,231.988h-6.8a3.463,3.463,0,0,1,0-6.926h6.8a3.463,3.463,0,1,1,0,6.926Zm0,0" transform="translate(220.359 7.726)" fill="#009cd6"/><path d="M151.355,231.988H129.963a3.463,3.463,0,0,1,0-6.926h21.393a3.463,3.463,0,1,1,0,6.926Zm0,0" transform="translate(263.78 7.726)" fill="#009cd6"/><path d="M54.25,203.274h-12.8a3.463,3.463,0,0,1,0-6.926h12.8a3.463,3.463,0,0,1,0,6.926Zm0,0" transform="translate(311.424 23.182)" fill="#009cd6"/><path d="M131.98,203.274H103.463a3.463,3.463,0,1,1,0-6.926H131.98a3.463,3.463,0,0,1,0,6.926Zm0,0" transform="translate(278.045 23.182)" fill="#009cd6"/><path d="M212.06,203.274H199.147a3.463,3.463,0,1,1,0-6.926H212.06a3.463,3.463,0,1,1,0,6.926Zm0,0" transform="translate(226.54 23.182)" fill="#009cd6"/><path d="M291.041,231.988h-14.23a3.463,3.463,0,0,1,0-6.926h14.23a3.463,3.463,0,0,1,0,6.926Zm0,0" transform="translate(184.736 7.726)" fill="#009cd6"/><path d="M448.3,231.988H437.631a3.463,3.463,0,0,1,0-6.926H448.3a3.463,3.463,0,1,1,0,6.926Zm0,0" transform="translate(98.17 7.726)" fill="#009cd6"/><path d="M369.949,231.988H341.631a3.463,3.463,0,0,1,0-6.926h28.318a3.463,3.463,0,1,1,0,6.926Zm0,0" transform="translate(149.844 7.726)" fill="#009cd6"/><path d="M297.195,203.274H276.811a3.463,3.463,0,0,1,0-6.926h20.384a3.463,3.463,0,0,1,0,6.926Zm0,0" transform="translate(184.736 23.182)" fill="#009cd6"/><path d="M442.2,203.274H426.3a3.463,3.463,0,1,1,0-6.926h15.9a3.463,3.463,0,1,1,0,6.926Zm0,0" transform="translate(104.269 23.182)" fill="#009cd6"/><path d="M372.372,203.274H355.631a3.463,3.463,0,0,1,0-6.926h16.741a3.463,3.463,0,0,1,0,6.926Zm0,0" transform="translate(142.308 23.182)" fill="#009cd6"/><path d="M66.774,463.57H41.451a3.463,3.463,0,0,1,0-6.926H66.776a3.463,3.463,0,1,1,0,6.926Zm0,0" transform="translate(311.424 -116.929)" fill="#009cd6"/><path d="M217.436,463.57h-6.8a3.463,3.463,0,0,1,0-6.926h6.8a3.463,3.463,0,1,1,0,6.926Zm0,0" transform="translate(220.359 -116.929)" fill="#009cd6"/><path d="M151.355,463.57H129.963a3.463,3.463,0,0,1,0-6.926h21.393a3.463,3.463,0,1,1,0,6.926Zm0,0" transform="translate(263.78 -116.929)" fill="#009cd6"/><path d="M54.25,434.859h-12.8a3.463,3.463,0,0,1,0-6.926h12.8a3.463,3.463,0,0,1,0,6.926Zm0,0" transform="translate(311.424 -101.475)" fill="#009cd6"/><path d="M131.98,434.859H103.463a3.463,3.463,0,0,1,0-6.926H131.98a3.463,3.463,0,0,1,0,6.926Zm0,0" transform="translate(278.045 -101.475)" fill="#009cd6"/><path d="M212.06,434.859H199.147a3.463,3.463,0,1,1,0-6.926H212.06a3.463,3.463,0,1,1,0,6.926Zm0,0" transform="translate(226.54 -101.475)" fill="#009cd6"/><path d="M291.041,463.57h-14.23a3.463,3.463,0,0,1,0-6.926h14.23a3.463,3.463,0,0,1,0,6.926Zm0,0" transform="translate(184.736 -116.929)" fill="#009cd6"/><path d="M448.3,463.57H437.631a3.463,3.463,0,0,1,0-6.926H448.3a3.463,3.463,0,1,1,0,6.926Zm0,0" transform="translate(98.17 -116.929)" fill="#009cd6"/><path d="M369.949,463.57H341.631a3.463,3.463,0,0,1,0-6.926h28.318a3.463,3.463,0,1,1,0,6.926Zm0,0" transform="translate(149.844 -116.929)" fill="#009cd6"/><path d="M297.195,434.859H276.811a3.463,3.463,0,0,1,0-6.926h20.384a3.463,3.463,0,0,1,0,6.926Zm0,0" transform="translate(184.736 -101.475)" fill="#009cd6"/><path d="M442.2,434.859H426.3a3.463,3.463,0,1,1,0-6.926h15.9a3.463,3.463,0,1,1,0,6.926Zm0,0" transform="translate(104.269 -101.475)" fill="#009cd6"/><path d="M372.372,434.859H355.631a3.463,3.463,0,0,1,0-6.926h16.741a3.463,3.463,0,0,1,0,6.926Zm0,0" transform="translate(142.308 -101.475)" fill="#009cd6"/></g></svg>