<svg xmlns="http://www.w3.org/2000/svg" xmlns:xlink="http://www.w3.org/1999/xlink" width="900" height="650" viewBox="0 0 900 650"><defs><linearGradient id="a" x1="0.5" y1="1" x2="0.5" gradientUnits="objectBoundingBox"><stop offset="0" stop-color="#111"/><stop offset="1" stop-color="#555"/></linearGradient><filter id="b" x="215" y="12" width="471" height="471" filterUnits="userSpaceOnUse"><feOffset input="SourceAlpha"/><feGaussianBlur stdDeviation="10" result="c"/><feFlood flood-opacity="0.102"/><feComposite operator="in" in2="c"/><feComposite in="SourceGraphic"/></filter><filter id="d" x="173" y="475" width="554" height="148" filterUnits="userSpaceOnUse"><feOffset input="SourceAlpha"/><feGaussianBlur stdDeviation="5" result="e"/><feFlood flood-opacity="0.161"/><feComposite operator="in" in2="e"/><feComposite in="SourceGraphic"/></filter><clipPath id="g"><rect width="900" height="650"/></clipPath></defs><g id="f" clip-path="url(#g)"><rect width="900" height="650" fill="#fff"/><rect width="900" height="650" fill="url(#a)"/><g transform="matrix(1, 0, 0, 1, 0, 0)" filter="url(#b)"><circle cx="205.5" cy="205.5" r="205.5" transform="translate(245 42)" fill="#fff"/></g><g transform="matrix(1, 0, 0, 1, 0, 0)" filter="url(#d)"><text transform="translate(450 543)" fill="#fff" font-size="50" font-family="NotoSans-Bold, Noto Sans" font-weight="700"><tspan x="-155.896" y="0">WEB DESIGN</tspan><tspan x="-261.169" y="50">FINAL COMPILATION</tspan></text></g><path d="M237.928,61.793H12.978A12.978,12.978,0,0,0,0,74.771V239.157a12.978,12.978,0,0,0,12.978,12.978h224.95a12.978,12.978,0,0,0,12.978-12.978V74.771A12.978,12.978,0,0,0,237.928,61.793ZM216.3,70.445h4.326a4.326,4.326,0,1,1,0,8.652H216.3a4.326,4.326,0,0,1,0-8.652Zm-121.127,0H198.994a4.326,4.326,0,1,1,0,8.652H95.171a4.326,4.326,0,1,1,0-8.652Zm-21.63,0h4.326a4.326,4.326,0,1,1,0,8.652H73.541a4.326,4.326,0,1,1,0-8.652Zm-17.3,0h4.326a4.326,4.326,0,1,1,0,8.652H56.238a4.326,4.326,0,1,1,0-8.652Zm-17.3,0a4.326,4.326,0,1,1-4.326,4.326A4.327,4.327,0,0,1,38.933,70.445Zm-12.978,0a4.326,4.326,0,1,1-4.326,4.326A4.327,4.327,0,0,1,25.956,70.445Zm-12.978,0a4.326,4.326,0,1,1-4.326,4.326A4.327,4.327,0,0,1,12.978,70.445ZM242.254,113.7V239.157a4.327,4.327,0,0,1-4.326,4.326H12.978a4.327,4.327,0,0,1-4.326-4.326V92.075a4.327,4.327,0,0,1,4.326-4.326h224.95a4.327,4.327,0,0,1,4.326,4.326ZM237.928,79.1H233.6a4.326,4.326,0,0,1,0-8.652h4.326a4.326,4.326,0,1,1,0,8.652Z" transform="translate(324.547 90.243)" fill="#00b8fc"/><path d="M256,297.5H368.475a4.327,4.327,0,0,0,4.326-4.326V167.724H256Zm64.889-108.149v-4.326a4.327,4.327,0,0,1,4.326-4.326H355.5a4.326,4.326,0,0,1,4.326,4.326v38.934a4.327,4.327,0,0,1-4.326,4.326H325.216a4.327,4.327,0,0,1-4.326-4.326Zm-51.911,0v-4.326A4.327,4.327,0,0,1,273.3,180.7h30.282a4.327,4.327,0,0,1,4.326,4.326v38.934a4.327,4.327,0,0,1-4.326,4.326H273.3a4.327,4.327,0,0,1-4.326-4.326V189.354Zm4.326,51.911H355.5a4.326,4.326,0,0,1,4.326,4.326V280.2a4.327,4.327,0,0,1-4.326,4.326H273.3a4.327,4.327,0,0,1-4.326-4.326V245.591A4.327,4.327,0,0,1,273.3,241.265Z" transform="translate(194 36.223)" fill="#fff"/><circle cx="4.326" cy="4.326" r="4.326" transform="translate(359.155 160.688)" fill="#00aeef"/><g transform="translate(376.458 160.687)"><path d="M110.257,88.1h4.326a4.326,4.326,0,0,0,0-8.652h-4.326a4.326,4.326,0,0,0,0,8.652Z" transform="translate(-105.931 -79.447)" fill="#fff"/><path d="M145.567,88.1h4.326a4.326,4.326,0,1,0,0-8.652h-4.326a4.326,4.326,0,1,0,0,8.652Z" transform="translate(-123.937 -79.447)" fill="#fff"/><path d="M436.877,88.1H441.2a4.326,4.326,0,1,0,0-8.652h-4.326a4.326,4.326,0,0,0,0,8.652Z" transform="translate(-272.491 -79.447)" fill="#fff"/><path d="M476.513,79.448h-4.326a4.326,4.326,0,0,0,0,8.652h4.326a4.326,4.326,0,1,0,0-8.652Z" transform="translate(-290.497 -79.448)" fill="#fff"/><path d="M189.705,88.1H293.528a4.326,4.326,0,1,0,0-8.652H189.705a4.326,4.326,0,1,0,0,8.652Z" transform="translate(-146.446 -79.447)" fill="#fff"/></g><circle cx="4.326" cy="4.326" r="4.326" transform="translate(346.177 160.688)" fill="#0080b0"/><path d="M368.475,114.759H256v25.956H372.8v-21.63A4.326,4.326,0,0,0,368.475,114.759Zm-82.193,17.3h-17.3a4.326,4.326,0,0,1,0-8.652h17.3a4.326,4.326,0,0,1,0,8.652Zm34.608,0h-17.3a4.326,4.326,0,1,1,0-8.652h17.3a4.326,4.326,0,1,1,0,8.652Zm34.607,0h-17.3a4.326,4.326,0,1,1,0-8.652h17.3a4.326,4.326,0,1,1,0,8.652Z" transform="translate(194 63.233)" fill="#0080b0"/><g transform="translate(462.977 225.577)"><path d="M286.808,250.795H317.09a4.326,4.326,0,0,0,4.326-4.326V211.861a4.327,4.327,0,0,1-4.326,4.326H286.808a4.327,4.327,0,0,1-4.326-4.326v34.608A4.327,4.327,0,0,0,286.808,250.795Z" transform="translate(-282.482 -211.861)" fill="#00b8fc"/><path d="M392.739,250.795h30.282a4.327,4.327,0,0,0,4.326-4.326V211.861a4.327,4.327,0,0,1-4.326,4.326H392.739a4.327,4.327,0,0,1-4.326-4.326v34.608A4.327,4.327,0,0,0,392.739,250.795Z" transform="translate(-336.502 -211.861)" fill="#00b8fc"/></g><path d="M286.808,207.184H317.09a4.326,4.326,0,0,0,4.326-4.326v-4.326a4.326,4.326,0,0,0-4.326-4.326H286.808a4.327,4.327,0,0,0-4.326,4.326v4.326A4.327,4.327,0,0,0,286.808,207.184Z" transform="translate(180.495 22.719)" fill="#009cd6"/><path d="M392.739,207.184h30.282a4.327,4.327,0,0,0,4.326-4.326v-4.326a4.327,4.327,0,0,0-4.326-4.326H392.739a4.327,4.327,0,0,0-4.326,4.326v4.326A4.327,4.327,0,0,0,392.739,207.184Z" transform="translate(126.476 22.719)" fill="#009cd6"/><path d="M304.464,322.119v34.608a4.327,4.327,0,0,1-4.326,4.326h77.867a4.327,4.327,0,0,0,4.326-4.326V322.119a4.326,4.326,0,0,0-4.326-4.326H300.138A4.327,4.327,0,0,1,304.464,322.119Z" transform="translate(171.492 -40.304)" fill="#00b8fc"/><circle cx="4.326" cy="4.326" r="4.326" transform="translate(333.199 160.688)" fill="#005270"/><g transform="translate(458.652 186.644)"><path d="M295.285,132.414h-17.3a4.326,4.326,0,0,0,0,8.652h17.3a4.326,4.326,0,0,0,0-8.652Z" transform="translate(-273.655 -132.414)" fill="#005270"/><path d="M365.906,132.414H348.6a4.326,4.326,0,1,0,0,8.652h17.3a4.326,4.326,0,1,0,0-8.652Z" transform="translate(-309.668 -132.414)" fill="#005270"/><path d="M436.526,132.414h-17.3a4.326,4.326,0,1,0,0,8.652h17.3a4.326,4.326,0,1,0,0-8.652Z" transform="translate(-345.681 -132.414)" fill="#005270"/></g><path d="M286.808,361.052h4.326a4.327,4.327,0,0,0,4.326-4.326V322.118a4.327,4.327,0,0,0-4.326-4.326h-4.326a4.327,4.327,0,0,0-4.326,4.326v34.608A4.327,4.327,0,0,0,286.808,361.052Z" transform="translate(180.495 -40.304)" fill="#005270"/><path d="M134.456,114.759H21.981a4.327,4.327,0,0,0-4.326,4.326V266.168a4.327,4.327,0,0,0,4.326,4.326H134.456V114.759ZM52.263,127.737h69.215a4.326,4.326,0,1,1,0,8.652H52.263a4.326,4.326,0,1,1,0-8.652Zm-21.63,0h4.326a4.326,4.326,0,1,1,0,8.652H30.633a4.326,4.326,0,1,1,0-8.652Zm43.26,25.956H60.915a4.326,4.326,0,1,1,0-8.652H73.893a4.326,4.326,0,1,1,0,8.652Zm4.326,12.978A4.327,4.327,0,0,1,73.892,171H60.914a4.326,4.326,0,1,1,0-8.652H73.892A4.326,4.326,0,0,1,78.218,166.67ZM30.633,196.952h4.326a4.326,4.326,0,0,1,0,8.652H30.633a4.326,4.326,0,0,1,0-8.652Zm-4.326-12.978a4.327,4.327,0,0,1,4.326-4.326h4.326a4.326,4.326,0,0,1,0,8.652H30.633A4.327,4.327,0,0,1,26.307,183.974Zm12.978,30.282h4.326a4.326,4.326,0,1,1,0,8.652H39.285a4.326,4.326,0,0,1,0-8.652ZM43.611,171H39.285a4.326,4.326,0,0,1,0-8.652h4.326a4.326,4.326,0,1,1,0,8.652Zm0-17.3H39.285a4.326,4.326,0,0,1,0-8.652h4.326a4.326,4.326,0,1,1,0,8.652ZM34.959,257.515H30.633a4.326,4.326,0,1,1,0-8.652h4.326a4.326,4.326,0,1,1,0,8.652Zm8.652-17.3H39.285a4.326,4.326,0,0,1,0-8.652h4.326a4.326,4.326,0,1,1,0,8.652Zm77.867,17.3H52.263a4.326,4.326,0,1,1,0-8.652h69.215a4.326,4.326,0,1,1,0,8.652ZM60.915,231.559H73.893a4.326,4.326,0,1,1,0,8.652H60.915a4.326,4.326,0,1,1,0-8.652Zm-4.326-12.978a4.327,4.327,0,0,1,4.326-4.326H73.893a4.326,4.326,0,1,1,0,8.652H60.915A4.327,4.327,0,0,1,56.588,218.582Zm64.889,21.63H91.2a4.326,4.326,0,0,1,0-8.652h30.282a4.326,4.326,0,1,1,0,8.652Zm0-17.3H91.2a4.326,4.326,0,0,1,0-8.652h30.282a4.326,4.326,0,1,1,0,8.652Zm0-17.3H52.263a4.326,4.326,0,1,1,0-8.652h69.215a4.326,4.326,0,1,1,0,8.652Zm0-17.3H52.263a4.326,4.326,0,1,1,0-8.652h69.215a4.326,4.326,0,1,1,0,8.652Zm0-17.3H91.2a4.326,4.326,0,0,1,0-8.652h30.282a4.326,4.326,0,1,1,0,8.652Zm0-17.3H91.2a4.326,4.326,0,0,1,0-8.652h30.282a4.326,4.326,0,1,1,0,8.652Z" transform="translate(315.544 63.233)" fill="#005270"/><path d="M83.774,149.893h69.215a4.326,4.326,0,1,0,0-8.652H83.774a4.326,4.326,0,1,0,0,8.652Z" transform="translate(284.033 49.728)" fill="#00b8fc"/><g transform="translate(372.132 208.274)"><path d="M114.407,176.552H101.429a4.326,4.326,0,1,0,0,8.652h12.978a4.326,4.326,0,1,0,0-8.652Z" transform="translate(-97.103 -176.552)" fill="#0080b0"/><path d="M114.407,211.862H101.429a4.326,4.326,0,1,0,0,8.652h12.978a4.326,4.326,0,1,0,0-8.652Z" transform="translate(-97.103 -194.558)" fill="#0080b0"/></g><path d="M152.989,247.172H83.774a4.326,4.326,0,0,0,0,8.652h69.215a4.326,4.326,0,1,0,0-8.652Z" transform="translate(284.033 -4.291)" fill="#00b8fc"/><g transform="translate(363.481 208.274)"><path d="M152.989,282.483H83.774a4.326,4.326,0,1,0,0,8.652h69.215a4.326,4.326,0,1,0,0-8.652Z" transform="translate(-79.448 -230.572)" fill="#fff"/><path d="M193.5,176.552H163.222a4.326,4.326,0,0,0,0,8.652H193.5a4.326,4.326,0,0,0,0-8.652Z" transform="translate(-119.963 -176.552)" fill="#fff"/><path d="M193.5,211.862H163.222a4.326,4.326,0,1,0,0,8.652H193.5a4.326,4.326,0,1,0,0-8.652Z" transform="translate(-119.963 -194.558)" fill="#fff"/><path d="M193.5,317.793H163.222a4.326,4.326,0,1,0,0,8.652H193.5a4.326,4.326,0,1,0,0-8.652Z" transform="translate(-119.963 -248.578)" fill="#fff"/><path d="M193.5,353.1H163.222a4.326,4.326,0,1,0,0,8.652H193.5a4.326,4.326,0,1,0,0-8.652Z" transform="translate(-119.963 -266.584)" fill="#fff"/></g><g transform="translate(372.132 277.488)"><path d="M101.429,326.444h12.978a4.326,4.326,0,1,0,0-8.652H101.429a4.326,4.326,0,1,0,0,8.652Z" transform="translate(-97.103 -317.792)" fill="#0080b0"/><path d="M101.429,361.755h12.978a4.326,4.326,0,1,0,0-8.652H101.429a4.326,4.326,0,1,0,0,8.652Z" transform="translate(-97.103 -335.799)" fill="#0080b0"/></g><path d="M152.989,388.414H83.774a4.326,4.326,0,0,0,0,8.652h69.215a4.326,4.326,0,0,0,0-8.652Z" transform="translate(284.033 -76.318)" fill="#00b8fc"/><g transform="translate(341.851 190.969)"><path d="M39.636,149.893h4.326a4.326,4.326,0,1,0,0-8.652H39.636a4.326,4.326,0,1,0,0,8.652Z" transform="translate(-35.31 -141.241)" fill="#009cd6"/><path d="M61.617,176.552H57.291a4.326,4.326,0,0,0,0,8.652h4.326a4.326,4.326,0,1,0,0-8.652Z" transform="translate(-44.313 -159.248)" fill="#009cd6"/><path d="M61.617,211.862H57.291a4.326,4.326,0,1,0,0,8.652h4.326a4.326,4.326,0,1,0,0-8.652Z" transform="translate(-44.313 -177.254)" fill="#009cd6"/><path d="M39.636,255.824h4.326a4.326,4.326,0,0,0,0-8.652H39.636a4.326,4.326,0,0,0,0,8.652Z" transform="translate(-35.31 -195.261)" fill="#009cd6"/><path d="M39.636,291.134h4.326a4.326,4.326,0,0,0,0-8.652H39.636a4.326,4.326,0,0,0,0,8.652Z" transform="translate(-35.31 -213.267)" fill="#009cd6"/><path d="M57.291,326.444h4.326a4.326,4.326,0,1,0,0-8.652H57.291a4.326,4.326,0,1,0,0,8.652Z" transform="translate(-44.313 -231.273)" fill="#009cd6"/><path d="M61.617,353.1H57.291a4.326,4.326,0,1,0,0,8.652h4.326a4.326,4.326,0,1,0,0-8.652Z" transform="translate(-44.313 -249.28)" fill="#009cd6"/><path d="M43.962,388.414H39.636a4.326,4.326,0,0,0,0,8.652h4.326a4.326,4.326,0,0,0,0-8.652Z" transform="translate(-35.31 -267.287)" fill="#009cd6"/></g></g></svg>