<svg xmlns="http://www.w3.org/2000/svg" xmlns:xlink="http://www.w3.org/1999/xlink" width="471" height="471" viewBox="0 0 471 471"><defs><filter id="a" x="0" y="0" width="471" height="471" filterUnits="userSpaceOnUse"><feOffset input="SourceAlpha"/><feGaussianBlur stdDeviation="10" result="b"/><feFlood flood-opacity="0.102"/><feComposite operator="in" in2="b"/><feComposite in="SourceGraphic"/></filter></defs><g transform="translate(-215 -12)"><g transform="matrix(1, 0, 0, 1, 215, 12)" filter="url(#a)"><circle cx="205.5" cy="205.5" r="205.5" transform="translate(30 30)" fill="#fff"/></g><g transform="translate(-971.128 -1919.128)"><path d="M224.268,236.4H12.135A12.134,12.134,0,0,1,0,224.268V12.135A12.134,12.134,0,0,1,12.135,0H224.268A12.134,12.134,0,0,1,236.4,12.135V224.268A12.134,12.134,0,0,1,224.268,236.4Zm0,0" transform="translate(1303 2048)" fill="#ffbb4d"/><path d="M483.272,12.131V224.266A12.135,12.135,0,0,1,471.135,236.4H458.629a12.134,12.134,0,0,0,12.135-12.136V12.131A12.133,12.133,0,0,0,458.629,0h12.506A12.134,12.134,0,0,1,483.272,12.131Zm0,0" transform="translate(1056.131 2048)" fill="#fc962e"/><path d="M124.9,108.978H41.63a2.533,2.533,0,0,1-2.532-2.532v-57.8a2.533,2.533,0,0,1,2.532-2.532H124.9a2.533,2.533,0,0,1,2.532,2.532v57.8A2.532,2.532,0,0,1,124.9,108.978Zm0,0" transform="translate(1281.955 2023.176)" fill="#fff"/><path d="M367.4,108.978H284.134a2.533,2.533,0,0,1-2.532-2.532v-57.8a2.533,2.533,0,0,1,2.532-2.532H367.4a2.532,2.532,0,0,1,2.532,2.532v57.8A2.531,2.531,0,0,1,367.4,108.978Zm0,0" transform="translate(1151.42 2023.176)" fill="#fff"/><path d="M125.049,338.748H41.477a2.378,2.378,0,0,1-2.379-2.379v-57.95a2.533,2.533,0,0,1,2.532-2.532H124.9a2.533,2.533,0,0,1,2.532,2.532v57.95A2.378,2.378,0,0,1,125.049,338.748Zm0,0" transform="translate(1281.955 1899.497)" fill="#fff"/><path d="M367.4,338.748H284.134a2.533,2.533,0,0,1-2.532-2.532v-57.8a2.533,2.533,0,0,1,2.532-2.532H367.4a2.532,2.532,0,0,1,2.532,2.532v57.8A2.531,2.531,0,0,1,367.4,338.748Zm0,0" transform="translate(1151.42 1899.497)" fill="#fff"/><path d="M214.885,48.652v57.8a2.531,2.531,0,0,1-2.532,2.53H201.578a2.53,2.53,0,0,0,2.53-2.53v-57.8a2.529,2.529,0,0,0-2.53-2.53h10.775A2.531,2.531,0,0,1,214.885,48.652Zm0,0" transform="translate(1194.495 2023.174)" fill="#fc962e"/><path d="M457.393,48.652v57.8a2.531,2.531,0,0,1-2.532,2.53H444.086a2.532,2.532,0,0,0,2.53-2.53v-57.8a2.532,2.532,0,0,0-2.53-2.53h10.775A2.531,2.531,0,0,1,457.393,48.652Zm0,0" transform="translate(1063.959 2023.174)" fill="#fc962e"/><path d="M214.885,278.421v57.95a2.377,2.377,0,0,1-2.379,2.379H201.73a2.379,2.379,0,0,0,2.379-2.379v-57.95a2.529,2.529,0,0,0-2.53-2.53h10.775A2.531,2.531,0,0,1,214.885,278.421Zm0,0" transform="translate(1194.495 1899.495)" fill="#fc962e"/><path d="M215.062,360.68v21.333a2.375,2.375,0,0,1-2.379,2.377H201.906a2.377,2.377,0,0,0,2.379-2.377V360.68Zm0,0" transform="translate(1194.318 1853.854)" fill="#eeb900"/><path d="M457.393,278.421v57.8a2.531,2.531,0,0,1-2.532,2.53H444.086a2.532,2.532,0,0,0,2.53-2.53v-57.8a2.532,2.532,0,0,0-2.53-2.53h10.775A2.531,2.531,0,0,1,457.393,278.421Zm0,0" transform="translate(1063.959 1899.495)" fill="#fc962e"/><path d="M132.093,121.449H100.047V71.664a2.38,2.38,0,0,1,2.379-2.379h27.289a2.38,2.38,0,0,1,2.379,2.379Zm0,0" transform="translate(1249.147 2010.705)" fill="#962903"/><path d="M157.081,71.66v49.787h-8.23V71.66a2.377,2.377,0,0,0-2.379-2.379H154.7A2.379,2.379,0,0,1,157.081,71.66Zm0,0" transform="translate(1224.157 2010.707)" fill="#621704"/><path d="M141.294,129.922a3.567,3.567,0,0,1-3.568-3.568v-4.74a3.568,3.568,0,0,1,7.137,0v4.74A3.569,3.569,0,0,1,141.294,129.922Zm0,0" transform="translate(1228.865 1984.458)" fill="#d9e7ec"/><path d="M354.25,121.449H322.2V71.664a2.38,2.38,0,0,1,2.379-2.379h27.289a2.38,2.38,0,0,1,2.379,2.379Zm0,0" transform="translate(1129.566 2010.705)" fill="#962903"/><path d="M378.253,71.66v49.787h-9.078V71.66a2.38,2.38,0,0,0-2.379-2.379h9.078A2.38,2.38,0,0,1,378.253,71.66Zm0,0" transform="translate(1105.562 2010.707)" fill="#621704"/><path d="M401.785,159.246H385.813a2.38,2.38,0,0,1-2.379-2.379V146.98a7.477,7.477,0,0,1,7.478-7.476h5.775a7.477,7.477,0,0,1,7.478,7.476v9.887A2.38,2.38,0,0,1,401.785,159.246Zm0,0" transform="translate(1096.607 1972.908)" fill="#e86807"/><path d="M413.178,146.982v9.886a2.38,2.38,0,0,1-2.379,2.379h-3.146V146.982a7.478,7.478,0,0,0-7.478-7.478H405.7A7.479,7.479,0,0,1,413.178,146.982Zm0,0" transform="translate(1087.595 1972.908)" fill="#962903"/><path d="M404.123,107.886a10.612,10.612,0,1,1-10.612-10.612A10.612,10.612,0,0,1,404.123,107.886Zm0,0" transform="translate(1096.895 1995.64)" fill="#e86807"/><path d="M413.274,107.888a10.615,10.615,0,0,1-13.379,10.243,10.61,10.61,0,0,0,0-20.491,10.615,10.615,0,0,1,13.379,10.248Zm0,0" transform="translate(1087.746 1995.64)" fill="#962903"/><path d="M63.124,351.219H41.477A2.378,2.378,0,0,1,39.1,348.84V299.055H60.745a2.379,2.379,0,0,1,2.379,2.379Zm0,0" transform="translate(1281.955 1887.026)" fill="#962903"/><path d="M78,301.43v49.787H69.121V301.43a2.377,2.377,0,0,0-2.379-2.379h8.883A2.38,2.38,0,0,1,78,301.43Zm0,0" transform="translate(1267.074 1887.028)" fill="#621704"/><path d="M101.371,337.265a10.612,10.612,0,1,1-10.612-10.612A10.612,10.612,0,0,1,101.371,337.265Zm0,0" transform="translate(1259.858 1872.171)" fill="#e86807"/><path d="M99.033,388.758H83.063a2.379,2.379,0,0,1-2.379-2.379v-9.887a7.476,7.476,0,0,1,7.476-7.476h5.775a7.477,7.477,0,0,1,7.478,7.476v9.887A2.379,2.379,0,0,1,99.033,388.758Zm0,0" transform="translate(1259.57 1849.367)" fill="#e86807"/><path d="M110.522,337.269a10.614,10.614,0,0,1-13.377,10.243,10.61,10.61,0,0,0,0-20.489,10.614,10.614,0,0,1,13.377,10.246Zm0,0" transform="translate(1250.709 1872.169)" fill="#962903"/><path d="M110.424,376.491v9.886a2.38,2.38,0,0,1-2.379,2.379H104.9V376.491a7.48,7.48,0,0,0-7.478-7.48h5.524A7.48,7.48,0,0,1,110.424,376.491Zm0,0" transform="translate(1250.56 1849.37)" fill="#962903"/><path d="M215.062,360.68v21.333a2.375,2.375,0,0,1-2.379,2.377H201.906a2.377,2.377,0,0,0,2.379-2.377V360.68Zm0,0" transform="translate(1194.318 1853.854)" fill="#fc962e"/><path d="M392.074,388.758H376.1a2.38,2.38,0,0,1-2.379-2.379v-9.887a7.477,7.477,0,0,1,7.478-7.476h5.775a7.476,7.476,0,0,1,7.476,7.476v9.887A2.378,2.378,0,0,1,392.074,388.758Zm0,0" transform="translate(1101.834 1849.367)" fill="#e86807"/><path d="M394.411,337.265A10.612,10.612,0,1,1,383.8,326.652,10.611,10.611,0,0,1,394.411,337.265Zm0,0" transform="translate(1102.122 1872.171)" fill="#e86807"/><path d="M403.563,337.269a10.615,10.615,0,0,1-13.379,10.243,10.609,10.609,0,0,0,0-20.489,10.615,10.615,0,0,1,13.379,10.246Zm0,0" transform="translate(1092.973 1872.169)" fill="#962903"/><path d="M403.465,376.491v9.886a2.378,2.378,0,0,1-2.377,2.379h-3.146V376.491a7.48,7.48,0,0,0-7.478-7.48h5.523A7.479,7.479,0,0,1,403.465,376.491Zm0,0" transform="translate(1092.822 1849.37)" fill="#962903"/><path d="M331.362,388.758H315.391a2.379,2.379,0,0,1-2.379-2.379v-9.887a7.476,7.476,0,0,1,7.476-7.476h5.777a7.476,7.476,0,0,1,7.476,7.476v9.887A2.379,2.379,0,0,1,331.362,388.758Zm0,0" transform="translate(1134.513 1849.367)" fill="#e86807"/><path d="M342.752,376.491v9.886a2.379,2.379,0,0,1-2.379,2.379H337.23V376.491a7.48,7.48,0,0,0-7.48-7.48h5.524A7.479,7.479,0,0,1,342.752,376.491Zm0,0" transform="translate(1125.503 1849.37)" fill="#962903"/><path d="M333.7,337.265a10.612,10.612,0,1,1-10.611-10.612A10.611,10.611,0,0,1,333.7,337.265Zm0,0" transform="translate(1134.801 1872.171)" fill="#e86807"/><path d="M342.85,337.269a10.614,10.614,0,0,1-13.377,10.243,10.61,10.61,0,0,0,0-20.489,10.614,10.614,0,0,1,13.377,10.246Zm0,0" transform="translate(1125.652 1872.169)" fill="#962903"/><g transform="translate(1320.54 2138.658)"><path d="M66.774,231.988H41.451a3.463,3.463,0,0,1,0-6.926H66.776a3.463,3.463,0,1,1,0,6.926Zm0,0" transform="translate(-37.988 -211.804)" fill="#fc962e"/><path d="M217.436,231.988h-6.8a3.463,3.463,0,0,1,0-6.926h6.8a3.463,3.463,0,1,1,0,6.926Zm0,0" transform="translate(-129.054 -211.804)" fill="#fc962e"/><path d="M151.355,231.988H129.963a3.463,3.463,0,0,1,0-6.926h21.393a3.463,3.463,0,1,1,0,6.926Zm0,0" transform="translate(-85.632 -211.804)" fill="#fc962e"/><path d="M54.25,203.274h-12.8a3.463,3.463,0,0,1,0-6.926h12.8a3.463,3.463,0,0,1,0,6.926Zm0,0" transform="translate(-37.988 -196.348)" fill="#fc962e"/><path d="M131.98,203.274H103.463a3.463,3.463,0,1,1,0-6.926H131.98a3.463,3.463,0,0,1,0,6.926Zm0,0" transform="translate(-71.368 -196.348)" fill="#fc962e"/><path d="M212.06,203.274H199.147a3.463,3.463,0,1,1,0-6.926H212.06a3.463,3.463,0,1,1,0,6.926Zm0,0" transform="translate(-122.872 -196.348)" fill="#fc962e"/><path d="M291.041,231.988h-14.23a3.463,3.463,0,0,1,0-6.926h14.23a3.463,3.463,0,0,1,0,6.926Zm0,0" transform="translate(-164.677 -211.804)" fill="#fc962e"/><path d="M448.3,231.988H437.631a3.463,3.463,0,0,1,0-6.926H448.3a3.463,3.463,0,1,1,0,6.926Zm0,0" transform="translate(-251.243 -211.804)" fill="#fc962e"/><path d="M369.949,231.988H341.631a3.463,3.463,0,0,1,0-6.926h28.318a3.463,3.463,0,1,1,0,6.926Zm0,0" transform="translate(-199.568 -211.804)" fill="#fc962e"/><path d="M297.195,203.274H276.811a3.463,3.463,0,0,1,0-6.926h20.384a3.463,3.463,0,0,1,0,6.926Zm0,0" transform="translate(-164.677 -196.348)" fill="#fc962e"/><path d="M442.2,203.274H426.3a3.463,3.463,0,1,1,0-6.926h15.9a3.463,3.463,0,1,1,0,6.926Zm0,0" transform="translate(-245.143 -196.348)" fill="#fc962e"/><path d="M372.372,203.274H355.631a3.463,3.463,0,0,1,0-6.926h16.741a3.463,3.463,0,0,1,0,6.926Zm0,0" transform="translate(-207.104 -196.348)" fill="#fc962e"/><path d="M66.774,463.57H41.451a3.463,3.463,0,0,1,0-6.926H66.776a3.463,3.463,0,1,1,0,6.926Zm0,0" transform="translate(-37.988 -336.459)" fill="#fc962e"/><path d="M217.436,463.57h-6.8a3.463,3.463,0,0,1,0-6.926h6.8a3.463,3.463,0,1,1,0,6.926Zm0,0" transform="translate(-129.054 -336.459)" fill="#fc962e"/><path d="M151.355,463.57H129.963a3.463,3.463,0,0,1,0-6.926h21.393a3.463,3.463,0,1,1,0,6.926Zm0,0" transform="translate(-85.632 -336.459)" fill="#fc962e"/><path d="M54.25,434.859h-12.8a3.463,3.463,0,0,1,0-6.926h12.8a3.463,3.463,0,0,1,0,6.926Zm0,0" transform="translate(-37.988 -321.005)" fill="#fc962e"/><path d="M131.98,434.859H103.463a3.463,3.463,0,0,1,0-6.926H131.98a3.463,3.463,0,0,1,0,6.926Zm0,0" transform="translate(-71.368 -321.005)" fill="#fc962e"/><path d="M212.06,434.859H199.147a3.463,3.463,0,1,1,0-6.926H212.06a3.463,3.463,0,1,1,0,6.926Zm0,0" transform="translate(-122.872 -321.005)" fill="#fc962e"/><path d="M291.041,463.57h-14.23a3.463,3.463,0,0,1,0-6.926h14.23a3.463,3.463,0,0,1,0,6.926Zm0,0" transform="translate(-164.677 -336.459)" fill="#fc962e"/><path d="M448.3,463.57H437.631a3.463,3.463,0,0,1,0-6.926H448.3a3.463,3.463,0,1,1,0,6.926Zm0,0" transform="translate(-251.243 -336.459)" fill="#fc962e"/><path d="M369.949,463.57H341.631a3.463,3.463,0,0,1,0-6.926h28.318a3.463,3.463,0,1,1,0,6.926Zm0,0" transform="translate(-199.568 -336.459)" fill="#fc962e"/><path d="M297.195,434.859H276.811a3.463,3.463,0,0,1,0-6.926h20.384a3.463,3.463,0,0,1,0,6.926Zm0,0" transform="translate(-164.677 -321.005)" fill="#fc962e"/><path d="M442.2,434.859H426.3a3.463,3.463,0,1,1,0-6.926h15.9a3.463,3.463,0,1,1,0,6.926Zm0,0" transform="translate(-245.143 -321.005)" fill="#fc962e"/><path d="M372.372,434.859H355.631a3.463,3.463,0,0,1,0-6.926h16.741a3.463,3.463,0,0,1,0,6.926Zm0,0" transform="translate(-207.104 -321.005)" fill="#fc962e"/></g></g></g></svg>